<?xml version="1.0" encoding="utf-8"?>
<!-- Generator: Adobe Illustrator 26.2.1, SVG Export Plug-In . SVG Version: 6.00 Build 0)  -->
<svg version="1.1" id="Layer_1" xmlns="http://www.w3.org/2000/svg" xmlns:xlink="http://www.w3.org/1999/xlink" x="0px" y="0px"
	 viewBox="0 0 244 155" style="enable-background:new 0 0 244 155;" xml:space="preserve">
<style type="text/css">
	.st0{fill:#FFFFFF;}
	.st1{fill:none;}
	.st2{fill:none;stroke:#DDDDDD;stroke-miterlimit:10;}
	.st3{display:none;fill:none;stroke:#DDDDDD;stroke-miterlimit:10;}
	.st4{fill:none;stroke:#888888;stroke-miterlimit:10;}
	.st5{enable-background:new    ;}
	.st6{display:none;}
	.st7{fill:none;stroke:#FF8500;stroke-width:2;stroke-miterlimit:10;}
	.st8{display:none;fill:none;stroke:#FF8500;stroke-width:2;stroke-miterlimit:10;}
	.st9{fill:none;stroke:#B2B2B2;stroke-width:2;stroke-miterlimit:10;}
	.st10{display:none;fill:none;stroke:#B2B2B2;stroke-width:2;stroke-miterlimit:10;}
</style>
<rect class="st0" width="244" height="155"/>
<g transform="translate(34,32)">
	<g>
		<g transform="translate(0,0)">
			<path class="st1" d="M0,0h200v100H0V0z"/>
			<g>
				<g>
					<g transform="translate(0.5,0.5)">
						<path pointer-events="none" class="st1" d="M0,0L0,0L0,0L0,0z"/>
						<g>
							<g pointer-events="none">
								<line class="st2" x1="0" y1="100" x2="200" y2="100"/>
								<line class="st2" x1="0" y1="71" x2="200" y2="71"/>
								<line class="st2" x1="0" y1="43" x2="200" y2="43"/>
								<line class="st2" x1="0" y1="14" x2="200" y2="14"/>
							</g>
						</g>
						<path pointer-events="none" class="st3" d="M0,0"/>
					</g>
				</g>
				<g>
					<g transform="translate(0.5,100.5)">
						<path pointer-events="none" class="st1" d="M0,0L0,0L0,0L0,0z"/>
						<g>
							<g pointer-events="none">
								<line class="st4" x1="18" y1="0" x2="18" y2="5"/>
								<line class="st4" x1="109" y1="0" x2="109" y2="5"/>
								<line class="st4" x1="191" y1="0" x2="191" y2="5"/>
							</g>
							<g pointer-events="none">
								<g class="st5">
									<path d="M5.2,15.2c0-1.9,0.6-2.8,2.2-3.3l0.9-0.3c0.7-0.2,1.1-0.5,1.1-1.2c0-0.9-0.6-1.3-1.7-1.3c-0.8,0-1.5,0.3-2.1,0.8
										L5.2,9.2C6,8.6,6.8,8.3,7.7,8.3c1.6,0,2.6,0.8,2.6,2.2c0,1.1-0.5,1.7-1.8,2l-0.9,0.3c-1.1,0.3-1.5,0.9-1.5,2.4h4.3V16H5.2
										V15.2z"/>
									<path d="M11.9,12.2c0-2.5,1-3.9,2.8-3.9s2.8,1.4,2.8,3.9c0,2.5-1,3.9-2.8,3.9S11.9,14.8,11.9,12.2z M16.2,10.1
										c-0.3-0.6-0.8-0.9-1.5-0.9c-1.3,0-1.9,1.1-1.9,3.1c0,0.5,0,0.9,0.1,1.3L16.2,10.1z M16.6,12.2c0-0.5,0-0.9-0.1-1.3
										l-3.4,3.5c0.3,0.6,0.8,0.9,1.5,0.9C16,15.3,16.6,14.2,16.6,12.2z"/>
									<path d="M18.8,12.2c0-2.5,1-3.9,2.8-3.9s2.8,1.4,2.8,3.9c0,2.5-1,3.9-2.8,3.9S18.8,14.8,18.8,12.2z M23.2,10.1
										c-0.3-0.6-0.8-0.9-1.5-0.9c-1.3,0-1.9,1.1-1.9,3.1c0,0.5,0,0.9,0.1,1.3L23.2,10.1z M23.6,12.2c0-0.5,0-0.9-0.1-1.3
										l-3.4,3.5c0.3,0.6,0.8,0.9,1.5,0.9C22.9,15.3,23.6,14.2,23.6,12.2z"/>
									<path d="M25.8,12.2c0-2.5,1-3.9,2.8-3.9c1.8,0,2.8,1.4,2.8,3.9c0,2.5-1,3.9-2.8,3.9C26.8,16.1,25.8,14.8,25.8,12.2z
										 M30.2,10.1c-0.3-0.6-0.8-0.9-1.5-0.9c-1.3,0-1.9,1.1-1.9,3.1c0,0.5,0,0.9,0.1,1.3L30.2,10.1z M30.6,12.2
										c0-0.5,0-0.9-0.1-1.3l-3.4,3.5c0.3,0.6,0.8,0.9,1.5,0.9C29.9,15.3,30.6,14.2,30.6,12.2z"/>
								</g>
								<g class="st5">
									<path d="M96.1,15.2c0-1.9,0.6-2.8,2.2-3.3l0.9-0.3c0.7-0.2,1.1-0.5,1.1-1.2c0-0.9-0.6-1.3-1.7-1.3c-0.8,0-1.5,0.3-2.1,0.8
										l-0.4-0.7c0.8-0.7,1.6-0.9,2.5-0.9c1.6,0,2.6,0.8,2.6,2.2c0,1.1-0.5,1.7-1.8,2l-0.9,0.3c-1.1,0.3-1.5,0.9-1.5,2.4h4.3V16
										h-5.1V15.2z"/>
									<path d="M102.8,12.2c0-2.5,1-3.9,2.8-3.9c1.8,0,2.8,1.4,2.8,3.9c0,2.5-1,3.9-2.8,3.9C103.8,16.1,102.8,14.8,102.8,12.2z
										 M107.2,10.1c-0.3-0.6-0.8-0.9-1.5-0.9c-1.3,0-1.9,1.1-1.9,3.1c0,0.5,0,0.9,0.1,1.3L107.2,10.1z M107.6,12.2
										c0-0.5,0-0.9-0.1-1.3l-3.4,3.5c0.3,0.6,0.8,0.9,1.5,0.9C106.9,15.3,107.6,14.2,107.6,12.2z"/>
									<path d="M109.9,15.2h2.3V9.9l-1.8,1.4l-0.4-0.5l2.5-2.4h0.6v6.8h2.3V16h-5.4V15.2z"/>
									<path d="M116.7,12.2c0-2.5,1-3.9,2.8-3.9c1.8,0,2.8,1.4,2.8,3.9c0,2.5-1,3.9-2.8,3.9C117.7,16.1,116.7,14.8,116.7,12.2z
										 M121.1,10.1c-0.3-0.6-0.8-0.9-1.5-0.9c-1.3,0-1.9,1.1-1.9,3.1c0,0.5,0,0.9,0.1,1.3L121.1,10.1z M121.5,12.2
										c0-0.5,0-0.9-0.1-1.3l-3.4,3.5c0.3,0.6,0.8,0.9,1.5,0.9C120.8,15.3,121.5,14.2,121.5,12.2z"/>
								</g>
								<g class="st5">
									<path d="M177.9,15.2c0-1.9,0.6-2.8,2.2-3.3l0.9-0.3c0.7-0.2,1.1-0.5,1.1-1.2c0-0.9-0.6-1.3-1.7-1.3c-0.8,0-1.5,0.3-2.1,0.8
										l-0.4-0.7c0.8-0.7,1.6-0.9,2.5-0.9c1.6,0,2.6,0.8,2.6,2.2c0,1.1-0.5,1.7-1.8,2l-0.9,0.3c-1.1,0.3-1.5,0.9-1.5,2.4h4.3V16
										h-5.1V15.2z"/>
									<path d="M184.6,12.2c0-2.5,1-3.9,2.8-3.9c1.8,0,2.8,1.4,2.8,3.9c0,2.5-1,3.9-2.8,3.9C185.6,16.1,184.6,14.8,184.6,12.2z
										 M189,10.1c-0.3-0.6-0.8-0.9-1.5-0.9c-1.3,0-1.9,1.1-1.9,3.1c0,0.5,0,0.9,0.1,1.3L189,10.1z M189.4,12.2
										c0-0.5,0-0.9-0.1-1.3l-3.4,3.5c0.3,0.6,0.8,0.9,1.5,0.9C188.7,15.3,189.4,14.2,189.4,12.2z"/>
									<path d="M191.7,15.2h2.3V9.9l-1.8,1.4l-0.4-0.5l2.5-2.4h0.6v6.8h2.3V16h-5.4V15.2z"/>
									<path d="M199.1,15.3c2.6-0.1,3.9-1.1,4.1-3h0c-0.6,0.6-1.3,0.9-2.1,0.9c-1.5,0-2.4-1-2.4-2.4c0-1.5,1.1-2.5,2.6-2.5
										c1.8,0,2.8,1.3,2.8,3.5c0,2.8-1.7,4.3-4.9,4.4L199.1,15.3z M203.2,11.3c-0.1-1.4-0.8-2.2-2-2.2c-1,0-1.7,0.6-1.7,1.7
										c0,1,0.6,1.6,1.7,1.6C201.9,12.4,202.6,12,203.2,11.3z"/>
								</g>
							</g>
						</g>
						<path pointer-events="none" class="st6" d="M0,0"/>
					</g>
				</g>
				<g>
					<g transform="translate(0.5,0.5)">
						<path pointer-events="none" class="st1" d="M0,0L0,0L0,0L0,0z"/>
						<g>
							<g pointer-events="none">
								<g class="st5">
									<path d="M-21.3,100.2c0-2.5,1-3.9,2.8-3.9c1.8,0,2.8,1.4,2.8,3.9c0,2.5-1,3.9-2.8,3.9C-20.3,104.1-21.3,102.8-21.3,100.2z
										 M-16.9,98.1c-0.3-0.6-0.8-0.9-1.5-0.9c-1.3,0-1.9,1.1-1.9,3.1c0,0.5,0,0.9,0.1,1.3L-16.9,98.1z M-16.5,100.2
										c0-0.5,0-0.9-0.1-1.3l-3.4,3.5c0.3,0.6,0.8,0.9,1.5,0.9C-17.2,103.3-16.5,102.2-16.5,100.2z"/>
									<path d="M-14.8,103.5l2.4-2.7l0.4,0.4l-2.2,2.9L-14.8,103.5z M-14.7,98.1c0-1.1,0.6-1.8,1.6-1.8c1,0,1.6,0.7,1.6,1.8
										c0,1.1-0.6,1.8-1.6,1.8C-14.1,99.9-14.7,99.2-14.7,98.1z M-12.3,98.1c0-0.7-0.3-1.1-0.8-1.1c-0.5,0-0.8,0.4-0.8,1.1
										c0,0.7,0.3,1.1,0.8,1.1C-12.6,99.2-12.3,98.8-12.3,98.1z M-11.5,102.3c0-1.1,0.6-1.8,1.6-1.8c1,0,1.6,0.7,1.6,1.8
										c0,1.1-0.6,1.8-1.6,1.8C-10.9,104.1-11.5,103.4-11.5,102.3z M-11,99.3l2.2-2.9l0.7,0.6l-2.4,2.7L-11,99.3z M-9,102.3
										c0-0.7-0.3-1.1-0.8-1.1c-0.5,0-0.8,0.4-0.8,1.1s0.3,1.1,0.8,1.1C-9.3,103.5-9,103.1-9,102.3z"/>
								</g>
								<g class="st5">
									<path d="M-28.1,74.6h2.3v-5.3l-1.8,1.4l-0.4-0.5l2.5-2.4h0.6v6.8h2.3v0.8h-5.4V74.6z"/>
									<path d="M-21.3,71.7c0-2.5,1-3.9,2.8-3.9s2.8,1.4,2.8,3.9c0,2.5-1,3.9-2.8,3.9S-21.3,74.2-21.3,71.7z M-16.9,69.5
										c-0.3-0.6-0.8-0.9-1.5-0.9c-1.3,0-1.9,1.1-1.9,3.1c0,0.5,0,0.9,0.1,1.3L-16.9,69.5z M-16.5,71.7c0-0.5,0-0.9-0.1-1.3
										l-3.4,3.5c0.3,0.6,0.8,0.9,1.5,0.9C-17.2,74.7-16.5,73.7-16.5,71.7z"/>
									<path d="M-14.8,74.9l2.4-2.7l0.4,0.4l-2.2,2.9L-14.8,74.9z M-14.7,69.5c0-1.1,0.6-1.8,1.6-1.8s1.6,0.7,1.6,1.8
										c0,1.1-0.6,1.8-1.6,1.8S-14.7,70.6-14.7,69.5z M-12.3,69.5c0-0.7-0.3-1.1-0.8-1.1s-0.8,0.4-0.8,1.1c0,0.7,0.3,1.1,0.8,1.1
										S-12.3,70.2-12.3,69.5z M-11.5,73.8c0-1.1,0.6-1.8,1.6-1.8s1.6,0.7,1.6,1.8c0,1.1-0.6,1.8-1.6,1.8S-11.5,74.9-11.5,73.8z
										 M-11,70.7l2.2-2.9l0.7,0.6l-2.4,2.7L-11,70.7z M-9,73.8c0-0.7-0.3-1.1-0.8-1.1s-0.8,0.4-0.8,1.1s0.3,1.1,0.8,1.1
										S-9,74.5-9,73.8z"/>
								</g>
								<g class="st5">
									<path d="M-28,46.1c0-1.9,0.6-2.8,2.2-3.3l0.9-0.3c0.7-0.2,1.1-0.5,1.1-1.2c0-0.9-0.6-1.3-1.7-1.3c-0.8,0-1.5,0.3-2.1,0.8
										l-0.4-0.7c0.8-0.7,1.6-0.9,2.5-0.9c1.6,0,2.6,0.8,2.6,2.2c0,1.1-0.5,1.7-1.8,2l-0.9,0.3c-1.1,0.3-1.5,0.9-1.5,2.4h4.3v0.8
										H-28V46.1z"/>
									<path d="M-21.3,43.1c0-2.5,1-3.9,2.8-3.9s2.8,1.4,2.8,3.9c0,2.5-1,3.9-2.8,3.9S-21.3,45.6-21.3,43.1z M-16.9,40.9
										c-0.3-0.6-0.8-0.9-1.5-0.9c-1.3,0-1.9,1.1-1.9,3.1c0,0.5,0,0.9,0.1,1.3L-16.9,40.9z M-16.5,43.1c0-0.5,0-0.9-0.1-1.3
										l-3.4,3.5c0.3,0.6,0.8,0.9,1.5,0.9C-17.2,46.2-16.5,45.1-16.5,43.1z"/>
									<path d="M-14.8,46.3l2.4-2.7l0.4,0.4l-2.2,2.9L-14.8,46.3z M-14.7,41c0-1.1,0.6-1.8,1.6-1.8s1.6,0.7,1.6,1.8
										c0,1.1-0.6,1.8-1.6,1.8S-14.7,42-14.7,41z M-12.3,41c0-0.7-0.3-1.1-0.8-1.1s-0.8,0.4-0.8,1.1c0,0.7,0.3,1.1,0.8,1.1
										S-12.3,41.7-12.3,41z M-11.5,45.2c0-1.1,0.6-1.8,1.6-1.8s1.6,0.7,1.6,1.8c0,1.1-0.6,1.8-1.6,1.8S-11.5,46.3-11.5,45.2z
										 M-11,42.1l2.2-2.9l0.7,0.6l-2.4,2.7L-11,42.1z M-9,45.2c0-0.7-0.3-1.1-0.8-1.1s-0.8,0.4-0.8,1.1c0,0.7,0.3,1.1,0.8,1.1
										S-9,45.9-9,45.2z"/>
								</g>
								<g class="st5">
									<path d="M-28,17.6c3.1,0,4.3-0.5,4.3-1.7c0-0.8-0.6-1.1-1.8-1.1h-1.4V14h0.9c1.2,0,1.9-0.5,1.9-1.4c0-0.8-0.6-1.2-1.6-1.2
										c-0.8,0-1.5,0.2-2.1,0.7l-0.4-0.7c0.7-0.5,1.5-0.8,2.5-0.8c1.6,0,2.5,0.7,2.5,2c0,0.8-0.3,1.4-1,1.7v0
										c0.9,0.2,1.3,0.8,1.3,1.7c0,1.8-1.5,2.5-5.2,2.5L-28,17.6z"/>
									<path d="M-21.3,14.5c0-2.5,1-3.9,2.8-3.9s2.8,1.4,2.8,3.9c0,2.5-1,3.9-2.8,3.9S-21.3,17.1-21.3,14.5z M-16.9,12.4
										c-0.3-0.6-0.8-0.9-1.5-0.9c-1.3,0-1.9,1.1-1.9,3.1c0,0.5,0,0.9,0.1,1.3L-16.9,12.4z M-16.5,14.5c0-0.5,0-0.9-0.1-1.3
										l-3.4,3.5c0.3,0.6,0.8,0.9,1.5,0.9C-17.2,17.6-16.5,16.5-16.5,14.5z"/>
									<path d="M-14.8,17.8l2.4-2.7l0.4,0.4l-2.2,2.9L-14.8,17.8z M-14.7,12.4c0-1.1,0.6-1.8,1.6-1.8s1.6,0.7,1.6,1.8
										c0,1.1-0.6,1.8-1.6,1.8S-14.7,13.5-14.7,12.4z M-12.3,12.4c0-0.7-0.3-1.1-0.8-1.1s-0.8,0.4-0.8,1.1c0,0.7,0.3,1.1,0.8,1.1
										S-12.3,13.1-12.3,12.4z M-11.5,16.6c0-1.1,0.6-1.8,1.6-1.8s1.6,0.7,1.6,1.8c0,1.1-0.6,1.8-1.6,1.8S-11.5,17.7-11.5,16.6z
										 M-11,13.5l2.2-2.9l0.7,0.6l-2.4,2.7L-11,13.5z M-9,16.6c0-0.7-0.3-1.1-0.8-1.1s-0.8,0.4-0.8,1.1s0.3,1.1,0.8,1.1
										S-9,17.4-9,16.6z"/>
								</g>
							</g>
						</g>
						<path pointer-events="none" class="st6" d="M0,0"/>
					</g>
				</g>
				<g>
					<g transform="translate(0,0)">
						<path class="st1" d="M0,0h200v100H0V0z"/>
						<g>
							<g>
								<path class="st7" d="M18.2,60.6l90.9-16l81.8-24.4"/>
							</g>
						</g>
						<path class="st8" d="M0,0"/>
					</g>
					<g transform="translate(0,0)">
						<path class="st1" d="M0,0h200v100H0V0z"/>
						<g>
							<g>
								<path class="st9" d="M18.2,44.6l90.9-15.8L190.9,12"/>
							</g>
						</g>
						<path class="st10" d="M0,0"/>
					</g>
				</g>
				<g>
					<g transform="translate(-28.879974365234375,-16)">
						<path pointer-events="none" class="st1" d="M0,0L0,0L0,0L0,0z"/>
						<g>
							<g pointer-events="none">
								<g class="st5">
									<path d="M0.8-4.9c0-2.6,1.1-4,3.2-4c0.9,0,1.5,0.2,2.2,0.8L5.6-7.3C5.1-7.7,4.6-7.9,4-7.9c-1.4,0-2.1,1-2.1,3
										c0,2,0.7,3,2.1,3c0.7,0,1.2-0.2,1.8-0.8l0.6,0.8c-0.7,0.7-1.5,1-2.4,1C1.9-0.9,0.8-2.3,0.8-4.9z"/>
									<path d="M7.6-3.8c0-1.8,1.2-3,2.9-3c1.7,0,2.9,1.2,2.9,3c0,1.8-1.2,3-2.9,3C8.7-0.9,7.6-2.1,7.6-3.8z M12.2-3.8
										c0-1.2-0.7-2-1.8-2s-1.8,0.7-1.8,2c0,1.2,0.7,2,1.8,2S12.2-2.6,12.2-3.8z"/>
									<path d="M16.6-3v-5.5h-2.3v-1h3.4v6.3c0,0.9,0.3,1.3,1.2,1.3c0.5,0,1-0.1,1.4-0.4l0.3,0.9C20-1,19.4-0.9,18.7-0.9
										C17.3-0.9,16.6-1.6,16.6-3z"/>
									<path d="M23.5-3v-5.5h-2.3v-1h3.4v6.3c0,0.9,0.3,1.3,1.2,1.3c0.5,0,1-0.1,1.4-0.4l0.3,0.9c-0.6,0.3-1.2,0.4-1.8,0.4
										C24.2-0.9,23.5-1.6,23.5-3z"/>
									<path d="M28.5-3.8c0-1.8,1.2-3,2.9-3c1.7,0,2.7,1.1,2.7,2.8c0,0.2,0,0.4,0,0.6h-4.5c0.1,1.1,0.9,1.6,2.1,1.6
										c0.7,0,1.2-0.2,1.8-0.6l0.4,0.8c-0.7,0.5-1.5,0.7-2.3,0.7C29.7-0.9,28.5-2,28.5-3.8z M33.1-4.3c-0.1-0.9-0.7-1.5-1.7-1.5
										c-1,0-1.6,0.6-1.8,1.5H33.1z"/>
									<path d="M35.8,1.1l0.4-0.9c0.6,0.3,1.2,0.5,1.9,0.5c1.2,0,1.7-0.5,1.7-1.5v-0.7C39.2-1.2,38.5-1,37.9-1
										c-1.5,0-2.5-1.2-2.5-2.9s1-2.9,2.5-2.9c0.7,0,1.3,0.2,2,0.7L40-6.7h0.8v5.9c0,1.5-0.9,2.4-2.7,2.4
										C37.3,1.7,36.5,1.5,35.8,1.1z M39.7-2.5v-2.8c-0.5-0.3-1.1-0.5-1.6-0.5c-1,0-1.6,0.7-1.6,1.9c0,1.2,0.6,1.9,1.6,1.9
										C38.7-2,39.2-2.2,39.7-2.5z"/>
									<path d="M42.4-3.8c0-1.8,1.2-3,2.9-3c1.7,0,2.7,1.1,2.7,2.8c0,0.2,0,0.4,0,0.6h-4.5c0.1,1.1,0.9,1.6,2.1,1.6
										c0.7,0,1.2-0.2,1.8-0.6l0.4,0.8c-0.7,0.5-1.5,0.7-2.3,0.7C43.6-0.9,42.4-2,42.4-3.8z M47-4.3c-0.1-0.9-0.7-1.5-1.7-1.5
										c-1,0-1.6,0.6-1.8,1.5H47z"/>
									<path d="M56.3-3.8c0-1.8,1.2-3,2.9-3C60.9-6.8,62-5.7,62-4c0,0.2,0,0.4,0,0.6h-4.5c0.1,1.1,0.9,1.6,2.1,1.6
										c0.7,0,1.2-0.2,1.8-0.6l0.4,0.8c-0.7,0.5-1.5,0.7-2.3,0.7C57.5-0.9,56.3-2,56.3-3.8z M60.9-4.3c-0.1-0.9-0.7-1.5-1.7-1.5
										c-1,0-1.6,0.6-1.8,1.5H60.9z"/>
									<path d="M63.3-3.8c0-1.8,1-3,2.5-3c0.6,0,1.2,0.2,1.8,0.6v-3.3h1.1V-1h-0.8l-0.1-0.6c-0.6,0.5-1.3,0.7-2,0.7
										C64.3-0.9,63.3-2,63.3-3.8z M67.6-2.4v-2.9c-0.5-0.3-1.1-0.5-1.6-0.5c-1,0-1.6,0.7-1.6,2c0,1.3,0.6,2,1.6,2
										C66.5-1.9,67.1-2,67.6-2.4z"/>
									<path d="M70.5-3v-3.7h1.1v3.5c0,0.9,0.3,1.3,1.2,1.3c0.6,0,1.1-0.2,1.6-0.5v-4.3h1.1V-1h-0.8l-0.1-0.6
										c-0.6,0.5-1.3,0.7-2,0.7C71.3-0.9,70.5-1.6,70.5-3z"/>
									<path d="M77.5-3.8c0-1.8,1.2-3,3-3c0.8,0,1.4,0.2,2.1,0.6l-0.4,0.9c-0.6-0.3-1.1-0.5-1.6-0.5c-1.2,0-1.9,0.7-1.9,2
										c0,1.3,0.7,2,1.9,2c0.6,0,1.2-0.2,1.8-0.6l0.4,0.9c-0.7,0.5-1.4,0.7-2.2,0.7C78.6-0.9,77.5-2,77.5-3.8z"/>
									<path d="M84.3-2.7c0-1.1,0.7-1.7,2.1-1.7h2v-0.2c0-0.9-0.4-1.3-1.5-1.3c-0.7,0-1.4,0.2-2,0.5l-0.3-0.9
										c0.7-0.4,1.5-0.6,2.4-0.6c1.7,0,2.5,0.7,2.5,2.2V-1h-0.8l-0.1-0.6c-0.6,0.5-1.3,0.7-2.1,0.7C85.1-0.9,84.3-1.5,84.3-2.7z
										 M88.4-2.4v-1.1h-2c-0.7,0-1.1,0.3-1.1,0.8c0,0.6,0.4,0.9,1.3,0.9C87.3-1.8,87.9-2,88.4-2.4z"/>
									<path d="M92.9-3v-2.7h-1.8v-1h1.8v-1.8l1.1-0.5v2.3h2.3v1h-2.3v2.5c0,0.9,0.3,1.3,1.2,1.3c0.5,0,0.9-0.1,1.4-0.4l0.3,0.9
										C96.3-1,95.7-0.9,95-0.9C93.6-0.9,92.9-1.6,92.9-3z"/>
									<path d="M98.1-3.8c0-1.8,1.2-3,2.9-3c1.7,0,2.7,1.1,2.7,2.8c0,0.2,0,0.4,0,0.6h-4.5c0.1,1.1,0.9,1.6,2.1,1.6
										c0.7,0,1.2-0.2,1.8-0.6l0.4,0.8c-0.7,0.5-1.5,0.7-2.3,0.7C99.3-0.9,98.1-2,98.1-3.8z M102.7-4.3c-0.1-0.9-0.7-1.5-1.7-1.5
										c-1,0-1.6,0.6-1.8,1.5H102.7z"/>
									<path d="M105.1-3.8c0-1.8,1-3,2.5-3c0.6,0,1.2,0.2,1.8,0.6v-3.3h1.1V-1h-0.8l-0.1-0.6c-0.6,0.5-1.3,0.7-2,0.7
										C106-0.9,105.1-2,105.1-3.8z M109.3-2.4v-2.9c-0.5-0.3-1.1-0.5-1.6-0.5c-1,0-1.6,0.7-1.6,2c0,1.3,0.6,2,1.6,2
										C108.3-1.9,108.8-2,109.3-2.4z"/>
									<path d="M119.3-6.7h0.8l0.1,0.6c0.6-0.5,1.3-0.7,2-0.7c1.5,0,2.5,1.2,2.5,3c0,1.8-1,3-2.5,3c-0.6,0-1.2-0.2-1.8-0.6v3h-1.1
										V-6.7z M123.5-3.8c0-1.3-0.6-2-1.6-2c-0.5,0-1.1,0.2-1.6,0.5v2.9c0.5,0.3,1.1,0.5,1.6,0.5C122.9-1.9,123.5-2.6,123.5-3.8z"
										/>
									<path d="M125.9-3.8c0-1.8,1.2-3,2.9-3c1.7,0,2.7,1.1,2.7,2.8c0,0.2,0,0.4,0,0.6H127c0.1,1.1,0.9,1.6,2.1,1.6
										c0.7,0,1.2-0.2,1.8-0.6l0.4,0.8c-0.7,0.5-1.5,0.7-2.3,0.7C127.1-0.9,125.9-2,125.9-3.8z M130.5-4.3
										c-0.1-0.9-0.7-1.5-1.7-1.5c-1,0-1.6,0.6-1.8,1.5H130.5z"/>
									<path d="M132.8-3.8c0-1.8,1.2-3,2.9-3s2.9,1.2,2.9,3c0,1.8-1.2,3-2.9,3S132.8-2.1,132.8-3.8z M137.5-3.8c0-1.2-0.7-2-1.8-2
										s-1.8,0.7-1.8,2c0,1.2,0.7,2,1.8,2S137.5-2.6,137.5-3.8z"/>
									<path d="M140.1-6.7h0.8l0.1,0.6c0.6-0.5,1.3-0.7,2-0.7c1.5,0,2.5,1.2,2.5,3c0,1.8-1,3-2.5,3c-0.6,0-1.2-0.2-1.8-0.6v3h-1.1
										V-6.7z M144.4-3.8c0-1.3-0.6-2-1.6-2c-0.5,0-1.1,0.2-1.6,0.5v2.9c0.5,0.3,1.1,0.5,1.6,0.5C143.8-1.9,144.4-2.6,144.4-3.8z"
										/>
									<path d="M148.8-3v-5.5h-2.3v-1h3.4v6.3c0,0.9,0.3,1.3,1.2,1.3c0.5,0,1-0.1,1.4-0.4l0.3,0.9c-0.6,0.3-1.2,0.4-1.8,0.4
										C149.5-0.9,148.8-1.6,148.8-3z"/>
									<path d="M153.8-3.8c0-1.8,1.2-3,2.9-3c1.7,0,2.7,1.1,2.7,2.8c0,0.2,0,0.4,0,0.6h-4.5c0.1,1.1,0.9,1.6,2.1,1.6
										c0.7,0,1.2-0.2,1.8-0.6l0.4,0.8c-0.7,0.5-1.5,0.7-2.3,0.7C155-0.9,153.8-2,153.8-3.8z M158.4-4.3c-0.1-0.9-0.7-1.5-1.7-1.5
										c-1,0-1.6,0.6-1.8,1.5H158.4z"/>
								</g>
							</g>
						</g>
						<path pointer-events="none" class="st6" d="M0,0"/>
					</g>
				</g>
			</g>
			<path class="st6" d="M0,0"/>
		</g>
	</g>
</g>
</svg>
