<?xml version="1.0" encoding="utf-8"?>
<!-- Generator: Adobe Illustrator 26.2.1, SVG Export Plug-In . SVG Version: 6.00 Build 0)  -->
<svg version="1.1" id="Layer_1" xmlns="http://www.w3.org/2000/svg" xmlns:xlink="http://www.w3.org/1999/xlink" x="0px" y="0px"
	 viewBox="0 0 279 161" style="enable-background:new 0 0 279 161;" xml:space="preserve">
<style type="text/css">
	.st0{fill:#FFFFFF;}
	.st1{fill:none;}
	.st2{fill:none;stroke:#DDDDDD;stroke-miterlimit:10;}
	.st3{display:none;fill:none;stroke:#DDDDDD;stroke-miterlimit:10;}
	.st4{fill:none;stroke:#888888;stroke-miterlimit:10;}
	.st5{enable-background:new    ;}
	.st6{display:none;}
	.st7{fill:none;stroke:#FF8500;stroke-width:2;stroke-miterlimit:10;}
	.st8{display:none;fill:none;stroke:#FF8500;stroke-width:2;stroke-miterlimit:10;}
	.st9{fill:none;stroke:#B2B2B2;stroke-width:2;stroke-miterlimit:10;}
	.st10{display:none;fill:none;stroke:#B2B2B2;stroke-width:2;stroke-miterlimit:10;}
</style>
<rect class="st0" width="279" height="161"/>
<g transform="translate(69,38)">
	<g>
		<g transform="translate(0,0)">
			<path class="st1" d="M0,0h200v100H0V0z"/>
			<g>
				<g>
					<g transform="translate(0.5,0.5)">
						<path pointer-events="none" class="st1" d="M0,0L0,0L0,0L0,0z"/>
						<g>
							<g pointer-events="none">
								<line class="st2" x1="0" y1="100" x2="200" y2="100"/>
								<line class="st2" x1="0" y1="50" x2="200" y2="50"/>
								<line class="st2" x1="0" y1="0" x2="200" y2="0"/>
							</g>
						</g>
						<path pointer-events="none" class="st3" d="M0,0"/>
					</g>
				</g>
				<g>
					<g transform="translate(0.5,100.5)">
						<path pointer-events="none" class="st1" d="M0,0L0,0L0,0L0,0z"/>
						<g>
							<g pointer-events="none">
								<line class="st4" x1="18" y1="0" x2="18" y2="5"/>
								<line class="st4" x1="109" y1="0" x2="109" y2="5"/>
								<line class="st4" x1="191" y1="0" x2="191" y2="5"/>
							</g>
							<g pointer-events="none">
								<g class="st5">
									<path d="M5.2,15.2c0-1.9,0.6-2.8,2.2-3.3l0.9-0.3c0.7-0.2,1.1-0.5,1.1-1.2c0-0.9-0.6-1.3-1.7-1.3c-0.8,0-1.5,0.3-2.1,0.8
										L5.2,9.2C6,8.6,6.8,8.3,7.7,8.3c1.6,0,2.6,0.8,2.6,2.2c0,1.1-0.5,1.7-1.8,2l-0.9,0.3c-1.1,0.3-1.5,0.9-1.5,2.4h4.3V16H5.2
										V15.2z"/>
									<path d="M11.9,12.2c0-2.5,1-3.9,2.8-3.9s2.8,1.4,2.8,3.9c0,2.5-1,3.9-2.8,3.9S11.9,14.8,11.9,12.2z M16.2,10.1
										c-0.3-0.6-0.8-0.9-1.5-0.9c-1.3,0-1.9,1.1-1.9,3.1c0,0.5,0,0.9,0.1,1.3L16.2,10.1z M16.6,12.2c0-0.5,0-0.9-0.1-1.3
										l-3.4,3.5c0.3,0.6,0.8,0.9,1.5,0.9C16,15.3,16.6,14.2,16.6,12.2z"/>
									<path d="M18.8,12.2c0-2.5,1-3.9,2.8-3.9s2.8,1.4,2.8,3.9c0,2.5-1,3.9-2.8,3.9S18.8,14.8,18.8,12.2z M23.2,10.1
										c-0.3-0.6-0.8-0.9-1.5-0.9c-1.3,0-1.9,1.1-1.9,3.1c0,0.5,0,0.9,0.1,1.3L23.2,10.1z M23.6,12.2c0-0.5,0-0.9-0.1-1.3
										l-3.4,3.5c0.3,0.6,0.8,0.9,1.5,0.9C22.9,15.3,23.6,14.2,23.6,12.2z"/>
									<path d="M25.8,12.2c0-2.5,1-3.9,2.8-3.9c1.8,0,2.8,1.4,2.8,3.9c0,2.5-1,3.9-2.8,3.9C26.8,16.1,25.8,14.8,25.8,12.2z
										 M30.2,10.1c-0.3-0.6-0.8-0.9-1.5-0.9c-1.3,0-1.9,1.1-1.9,3.1c0,0.5,0,0.9,0.1,1.3L30.2,10.1z M30.6,12.2
										c0-0.5,0-0.9-0.1-1.3l-3.4,3.5c0.3,0.6,0.8,0.9,1.5,0.9C29.9,15.3,30.6,14.2,30.6,12.2z"/>
								</g>
								<g class="st5">
									<path d="M96.1,15.2c0-1.9,0.6-2.8,2.2-3.3l0.9-0.3c0.7-0.2,1.1-0.5,1.1-1.2c0-0.9-0.6-1.3-1.7-1.3c-0.8,0-1.5,0.3-2.1,0.8
										l-0.4-0.7c0.8-0.7,1.6-0.9,2.5-0.9c1.6,0,2.6,0.8,2.6,2.2c0,1.1-0.5,1.7-1.8,2l-0.9,0.3c-1.1,0.3-1.5,0.9-1.5,2.4h4.3V16
										h-5.1V15.2z"/>
									<path d="M102.8,12.2c0-2.5,1-3.9,2.8-3.9c1.8,0,2.8,1.4,2.8,3.9c0,2.5-1,3.9-2.8,3.9C103.8,16.1,102.8,14.8,102.8,12.2z
										 M107.2,10.1c-0.3-0.6-0.8-0.9-1.5-0.9c-1.3,0-1.9,1.1-1.9,3.1c0,0.5,0,0.9,0.1,1.3L107.2,10.1z M107.6,12.2
										c0-0.5,0-0.9-0.1-1.3l-3.4,3.5c0.3,0.6,0.8,0.9,1.5,0.9C106.9,15.3,107.6,14.2,107.6,12.2z"/>
									<path d="M109.9,15.2h2.3V9.9l-1.8,1.4l-0.4-0.5l2.5-2.4h0.6v6.8h2.3V16h-5.4V15.2z"/>
									<path d="M116.7,12.2c0-2.5,1-3.9,2.8-3.9c1.8,0,2.8,1.4,2.8,3.9c0,2.5-1,3.9-2.8,3.9C117.7,16.1,116.7,14.8,116.7,12.2z
										 M121.1,10.1c-0.3-0.6-0.8-0.9-1.5-0.9c-1.3,0-1.9,1.1-1.9,3.1c0,0.5,0,0.9,0.1,1.3L121.1,10.1z M121.5,12.2
										c0-0.5,0-0.9-0.1-1.3l-3.4,3.5c0.3,0.6,0.8,0.9,1.5,0.9C120.8,15.3,121.5,14.2,121.5,12.2z"/>
								</g>
								<g class="st5">
									<path d="M177.9,15.2c0-1.9,0.6-2.8,2.2-3.3l0.9-0.3c0.7-0.2,1.1-0.5,1.1-1.2c0-0.9-0.6-1.3-1.7-1.3c-0.8,0-1.5,0.3-2.1,0.8
										l-0.4-0.7c0.8-0.7,1.6-0.9,2.5-0.9c1.6,0,2.6,0.8,2.6,2.2c0,1.1-0.5,1.7-1.8,2l-0.9,0.3c-1.1,0.3-1.5,0.9-1.5,2.4h4.3V16
										h-5.1V15.2z"/>
									<path d="M184.6,12.2c0-2.5,1-3.9,2.8-3.9c1.8,0,2.8,1.4,2.8,3.9c0,2.5-1,3.9-2.8,3.9C185.6,16.1,184.6,14.8,184.6,12.2z
										 M189,10.1c-0.3-0.6-0.8-0.9-1.5-0.9c-1.3,0-1.9,1.1-1.9,3.1c0,0.5,0,0.9,0.1,1.3L189,10.1z M189.4,12.2
										c0-0.5,0-0.9-0.1-1.3l-3.4,3.5c0.3,0.6,0.8,0.9,1.5,0.9C188.7,15.3,189.4,14.2,189.4,12.2z"/>
									<path d="M191.7,15.2h2.3V9.9l-1.8,1.4l-0.4-0.5l2.5-2.4h0.6v6.8h2.3V16h-5.4V15.2z"/>
									<path d="M199.1,15.3c2.6-0.1,3.9-1.1,4.1-3h0c-0.6,0.6-1.3,0.9-2.1,0.9c-1.5,0-2.4-1-2.4-2.4c0-1.5,1.1-2.5,2.6-2.5
										c1.8,0,2.8,1.3,2.8,3.5c0,2.8-1.7,4.3-4.9,4.4L199.1,15.3z M203.2,11.3c-0.1-1.4-0.8-2.2-2-2.2c-1,0-1.7,0.6-1.7,1.7
										c0,1,0.6,1.6,1.7,1.6C201.9,12.4,202.6,12,203.2,11.3z"/>
								</g>
							</g>
						</g>
						<path pointer-events="none" class="st6" d="M0,0"/>
					</g>
				</g>
				<g>
					<g transform="translate(0.5,0.5)">
						<path pointer-events="none" class="st1" d="M0,0L0,0L0,0L0,0z"/>
						<g>
							<g pointer-events="none">
								<g class="st5">
									<path d="M-18.7,103.8c-1,0-1.8-0.3-2.5-0.9l0.5-0.7c0.6,0.5,1.2,0.7,2,0.7v-2.4l-0.5-0.1c-1.2-0.2-1.8-0.8-1.8-1.8
										c0-1.2,0.8-1.9,2.3-2l-0.1-1.2h0.9l-0.1,1.2c0.8,0.1,1.5,0.3,2.1,0.7l-0.4,0.7c-0.5-0.3-1-0.5-1.6-0.6v2.3l0.5,0.1
										c1.2,0.2,1.8,0.8,1.8,1.8c0,1.2-0.8,2-2.3,2.1l0.1,1.2h-0.9L-18.7,103.8z M-18.7,97.5c-0.9,0.1-1.4,0.5-1.4,1.1
										c0,0.6,0.3,0.9,1.2,1l0.2,0V97.5z M-16.6,101.7c0-0.6-0.4-0.9-1.2-1l-0.2,0v2.2C-17.1,102.8-16.6,102.4-16.6,101.7z"/>
									<path d="M-14.3,100.2c0-2.5,1-3.9,2.8-3.9c1.8,0,2.8,1.4,2.8,3.9c0,2.5-1,3.9-2.8,3.9C-13.3,104.1-14.3,102.8-14.3,100.2z
										 M-9.9,98.1c-0.3-0.6-0.8-0.9-1.5-0.9c-1.3,0-1.9,1.1-1.9,3.1c0,0.5,0,0.9,0.1,1.3L-9.9,98.1z M-9.5,100.2
										c0-0.5,0-0.9-0.1-1.3l-3.4,3.5c0.3,0.6,0.8,0.9,1.5,0.9C-10.2,103.3-9.5,102.2-9.5,100.2z"/>
								</g>
								<g class="st5">
									<path d="M-53.5,53.8c-1,0-1.8-0.3-2.5-0.9l0.5-0.7c0.6,0.5,1.2,0.7,2,0.7v-2.4l-0.5-0.1c-1.2-0.2-1.8-0.8-1.8-1.8
										c0-1.2,0.8-1.9,2.3-2l-0.1-1.2h0.9l-0.1,1.2c0.8,0.1,1.5,0.3,2.1,0.7l-0.4,0.7c-0.5-0.3-1-0.5-1.6-0.6v2.3l0.5,0.1
										c1.2,0.2,1.8,0.8,1.8,1.8c0,1.2-0.8,2-2.3,2.1l0.1,1.2h-0.9L-53.5,53.8z M-53.5,47.5c-0.9,0.1-1.4,0.5-1.4,1.1
										c0,0.6,0.3,0.9,1.2,1l0.2,0V47.5z M-51.4,51.7c0-0.6-0.4-0.9-1.2-1l-0.2,0v2.2C-51.9,52.8-51.4,52.4-51.4,51.7z"/>
									<path d="M-48.9,53.3c3.1,0,4.3-0.5,4.3-1.8c0-0.8-0.5-1.2-1.5-1.2c-0.7,0-1.3,0.2-1.9,0.5l-0.7-0.3l0.5-4h4.2v0.8h-3.5
										l-0.3,2.6c0.6-0.3,1.2-0.4,1.8-0.4c1.5,0,2.2,0.7,2.2,2c0,1.9-1.5,2.6-5.2,2.6L-48.9,53.3z"/>
									<path d="M-42.2,50.2c0-2.5,1-3.9,2.8-3.9s2.8,1.4,2.8,3.9c0,2.5-1,3.9-2.8,3.9S-42.2,52.8-42.2,50.2z M-37.8,48.1
										c-0.3-0.6-0.8-0.9-1.5-0.9c-1.3,0-1.9,1.1-1.9,3.1c0,0.5,0,0.9,0.1,1.3L-37.8,48.1z M-37.4,50.2c0-0.5,0-0.9-0.1-1.3
										l-3.4,3.5c0.3,0.6,0.8,0.9,1.5,0.9C-38,53.3-37.4,52.2-37.4,50.2z"/>
									<path d="M-33.7,55.7c0.9-0.2,1.3-0.8,1.4-1.6c-0.1,0-0.1,0-0.2,0c-0.5,0-0.8-0.4-0.8-0.9s0.3-0.9,0.9-0.9
										c0.5,0,0.9,0.3,0.9,1.2c0,1-0.6,2.4-2.1,2.7L-33.7,55.7z"/>
									<path d="M-28.2,50.2c0-2.5,1-3.9,2.8-3.9c1.8,0,2.8,1.4,2.8,3.9c0,2.5-1,3.9-2.8,3.9C-27.2,54.1-28.2,52.8-28.2,50.2z
										 M-23.9,48.1c-0.3-0.6-0.8-0.9-1.5-0.9c-1.3,0-1.9,1.1-1.9,3.1c0,0.5,0,0.9,0.1,1.3L-23.9,48.1z M-23.5,50.2
										c0-0.5,0-0.9-0.1-1.3l-3.4,3.5c0.3,0.6,0.8,0.9,1.5,0.9C-24.1,53.3-23.5,52.2-23.5,50.2z"/>
									<path d="M-21.3,50.2c0-2.5,1-3.9,2.8-3.9c1.8,0,2.8,1.4,2.8,3.9c0,2.5-1,3.9-2.8,3.9C-20.3,54.1-21.3,52.8-21.3,50.2z
										 M-16.9,48.1c-0.3-0.6-0.8-0.9-1.5-0.9c-1.3,0-1.9,1.1-1.9,3.1c0,0.5,0,0.9,0.1,1.3L-16.9,48.1z M-16.5,50.2
										c0-0.5,0-0.9-0.1-1.3l-3.4,3.5c0.3,0.6,0.8,0.9,1.5,0.9C-17.2,53.3-16.5,52.2-16.5,50.2z"/>
									<path d="M-14.3,50.2c0-2.5,1-3.9,2.8-3.9s2.8,1.4,2.8,3.9c0,2.5-1,3.9-2.8,3.9S-14.3,52.8-14.3,50.2z M-9.9,48.1
										c-0.3-0.6-0.8-0.9-1.5-0.9c-1.3,0-1.9,1.1-1.9,3.1c0,0.5,0,0.9,0.1,1.3L-9.9,48.1z M-9.5,50.2c0-0.5,0-0.9-0.1-1.3
										l-3.4,3.5c0.3,0.6,0.8,0.9,1.5,0.9C-10.2,53.3-9.5,52.2-9.5,50.2z"/>
								</g>
								<g class="st5">
									<path d="M-60.5,3.8c-1,0-1.8-0.3-2.5-0.9l0.5-0.7c0.6,0.5,1.2,0.7,2,0.7V0.6l-0.5-0.1c-1.2-0.2-1.8-0.8-1.8-1.8
										c0-1.2,0.8-1.9,2.3-2l-0.1-1.2h0.9l-0.1,1.2c0.8,0.1,1.5,0.3,2.1,0.7l-0.4,0.7c-0.5-0.3-1-0.5-1.6-0.6v2.3l0.5,0.1
										c1.2,0.2,1.8,0.8,1.8,1.8c0,1.2-0.8,2-2.3,2.1l0.1,1.2h-0.9L-60.5,3.8z M-60.5-2.5c-0.9,0.1-1.4,0.5-1.4,1.1
										c0,0.6,0.3,0.9,1.2,1l0.2,0V-2.5z M-58.4,1.7c0-0.6-0.4-0.9-1.2-1l-0.2,0v2.2C-58.9,2.8-58.4,2.4-58.4,1.7z"/>
									<path d="M-55.9,3.2h2.3v-5.3l-1.8,1.4l-0.4-0.5l2.5-2.4h0.6v6.8h2.3V4h-5.4V3.2z"/>
									<path d="M-49.1,0.2c0-2.5,1-3.9,2.8-3.9s2.8,1.4,2.8,3.9c0,2.5-1,3.9-2.8,3.9S-49.1,2.8-49.1,0.2z M-44.7-1.9
										c-0.3-0.6-0.8-0.9-1.5-0.9c-1.3,0-1.9,1.1-1.9,3.1c0,0.5,0,0.9,0.1,1.3L-44.7-1.9z M-44.3,0.2c0-0.5,0-0.9-0.1-1.3
										l-3.4,3.5c0.3,0.6,0.8,0.9,1.5,0.9C-45,3.3-44.3,2.2-44.3,0.2z"/>
									<path d="M-42.2,0.2c0-2.5,1-3.9,2.8-3.9c1.8,0,2.8,1.4,2.8,3.9c0,2.5-1,3.9-2.8,3.9C-41.2,4.1-42.2,2.8-42.2,0.2z
										 M-37.8-1.9c-0.3-0.6-0.8-0.9-1.5-0.9c-1.3,0-1.9,1.1-1.9,3.1c0,0.5,0,0.9,0.1,1.3L-37.8-1.9z M-37.4,0.2
										c0-0.5,0-0.9-0.1-1.3l-3.4,3.5c0.3,0.6,0.8,0.9,1.5,0.9C-38,3.3-37.4,2.2-37.4,0.2z"/>
									<path d="M-33.7,5.7c0.9-0.2,1.3-0.8,1.4-1.6c-0.1,0-0.1,0-0.2,0c-0.5,0-0.8-0.4-0.8-0.9s0.3-0.9,0.9-0.9
										c0.5,0,0.9,0.3,0.9,1.2c0,1-0.6,2.4-2.1,2.7L-33.7,5.7z"/>
									<path d="M-28.2,0.2c0-2.5,1-3.9,2.8-3.9c1.8,0,2.8,1.4,2.8,3.9c0,2.5-1,3.9-2.8,3.9C-27.2,4.1-28.2,2.8-28.2,0.2z
										 M-23.9-1.9c-0.3-0.6-0.8-0.9-1.5-0.9c-1.3,0-1.9,1.1-1.9,3.1c0,0.5,0,0.9,0.1,1.3L-23.9-1.9z M-23.5,0.2
										c0-0.5,0-0.9-0.1-1.3l-3.4,3.5c0.3,0.6,0.8,0.9,1.5,0.9C-24.1,3.3-23.5,2.2-23.5,0.2z"/>
									<path d="M-21.3,0.2c0-2.5,1-3.9,2.8-3.9s2.8,1.4,2.8,3.9c0,2.5-1,3.9-2.8,3.9S-21.3,2.8-21.3,0.2z M-16.9-1.9
										c-0.3-0.6-0.8-0.9-1.5-0.9c-1.3,0-1.9,1.1-1.9,3.1c0,0.5,0,0.9,0.1,1.3L-16.9-1.9z M-16.5,0.2c0-0.5,0-0.9-0.1-1.3L-20,2.4
										c0.3,0.6,0.8,0.9,1.5,0.9C-17.2,3.3-16.5,2.2-16.5,0.2z"/>
									<path d="M-14.3,0.2c0-2.5,1-3.9,2.8-3.9s2.8,1.4,2.8,3.9c0,2.5-1,3.9-2.8,3.9S-14.3,2.8-14.3,0.2z M-9.9-1.9
										c-0.3-0.6-0.8-0.9-1.5-0.9c-1.3,0-1.9,1.1-1.9,3.1c0,0.5,0,0.9,0.1,1.3L-9.9-1.9z M-9.5,0.2c0-0.5,0-0.9-0.1-1.3L-13,2.4
										c0.3,0.6,0.8,0.9,1.5,0.9C-10.2,3.3-9.5,2.2-9.5,0.2z"/>
								</g>
							</g>
						</g>
						<path pointer-events="none" class="st6" d="M0,0"/>
					</g>
				</g>
				<g>
					<g transform="translate(0,0)">
						<path class="st1" d="M0,0h200v100H0V0z"/>
						<g>
							<g>
								<path class="st7" d="M18.2,62.2l90.9-21.6l81.8-33"/>
							</g>
						</g>
						<path class="st8" d="M0,0"/>
					</g>
					<g transform="translate(0,0)">
						<path class="st1" d="M0,0h200v100H0V0z"/>
						<g>
							<g>
								<path class="st9" d="M18.2,57.4l90.9-14.2l81.8-9.6"/>
							</g>
						</g>
						<path class="st10" d="M0,0"/>
					</g>
				</g>
				<g>
					<g transform="translate(-63.679931640625,-22)">
						<path pointer-events="none" class="st1" d="M0,0L0,0L0,0L0,0z"/>
						<g>
							<g pointer-events="none">
								<g class="st5">
									<path d="M0.7-8.8h1.4l1.3,4.5l1.3-4.5h1.4V-1h-1v-6.3L3.8-2.6H3.1L1.7-7.3V-1h-1V-8.8z"/>
									<path d="M7.6-3.8c0-1.8,1.2-3,2.9-3c1.7,0,2.7,1.1,2.7,2.8c0,0.2,0,0.4,0,0.6H8.7c0.1,1.1,0.9,1.6,2.1,1.6
										c0.7,0,1.2-0.2,1.8-0.6l0.4,0.8c-0.7,0.5-1.5,0.7-2.3,0.7C8.8-0.9,7.6-2,7.6-3.8z M12.2-4.3c-0.1-0.9-0.7-1.5-1.7-1.5
										c-1,0-1.6,0.6-1.8,1.5H12.2z"/>
									<path d="M14.6-3.8c0-1.8,1-3,2.5-3c0.6,0,1.2,0.2,1.8,0.6v-3.3h1.1V-1h-0.8L19-1.6c-0.6,0.5-1.3,0.7-2,0.7
										C15.5-0.9,14.6-2,14.6-3.8z M18.8-2.4v-2.9c-0.5-0.3-1.1-0.5-1.6-0.5c-1,0-1.6,0.7-1.6,2c0,1.3,0.6,2,1.6,2
										C17.8-1.9,18.4-2,18.8-2.4z"/>
									<path d="M23.8-5.7h-2.3v-1h3.4V-2h2.3v1h-3.4V-5.7z M23.4-8.8c0-0.5,0.4-0.9,0.9-0.9s0.9,0.4,0.9,0.9
										c0,0.5-0.4,0.9-0.9,0.9S23.4-8.3,23.4-8.8z"/>
									<path d="M28.6-2.7c0-1.1,0.7-1.7,2.1-1.7h2v-0.2c0-0.9-0.4-1.3-1.5-1.3c-0.7,0-1.4,0.2-2,0.5l-0.3-0.9
										c0.7-0.4,1.5-0.6,2.4-0.6c1.7,0,2.5,0.7,2.5,2.2V-1H33l-0.1-0.6c-0.6,0.5-1.3,0.7-2.1,0.7C29.4-0.9,28.6-1.5,28.6-2.7z
										 M32.7-2.4v-1.1h-2c-0.7,0-1.1,0.3-1.1,0.8c0,0.6,0.4,0.9,1.3,0.9C31.6-1.8,32.2-2,32.7-2.4z"/>
									<path d="M35.8-6.7h0.8l0.1,0.6c0.6-0.5,1.3-0.7,2-0.7c1.3,0,2,0.7,2,2.1V-1h-1.1v-3.5c0-0.9-0.3-1.3-1.2-1.3
										c-0.6,0-1.1,0.2-1.6,0.5V-1h-1.1V-6.7z"/>
									<path d="M51.4-5.7h-1.8v-1h1.8v-0.9c0-1.4,0.8-2.1,2.3-2.1c0.6,0,1.2,0.1,1.8,0.4l-0.3,0.9c-0.4-0.2-0.9-0.3-1.3-0.3
										c-0.9,0-1.3,0.4-1.3,1.3v0.7h2.3v1h-2.3V-1h-1.1V-5.7z"/>
									<path d="M56.4-2.7c0-1.1,0.7-1.7,2.1-1.7h2v-0.2c0-0.9-0.4-1.3-1.5-1.3c-0.7,0-1.4,0.2-2,0.5l-0.3-0.9
										c0.7-0.4,1.5-0.6,2.4-0.6c1.7,0,2.5,0.7,2.5,2.2V-1h-0.8l-0.1-0.6c-0.6,0.5-1.3,0.7-2.1,0.7C57.2-0.9,56.4-1.5,56.4-2.7z
										 M60.6-2.4v-1.1h-2c-0.7,0-1.1,0.3-1.1,0.8c0,0.6,0.4,0.9,1.3,0.9C59.5-1.8,60-2,60.6-2.4z"/>
									<path d="M63.2-6.7h0.7L64-6.2c0.4-0.4,0.9-0.6,1.4-0.6c0.5,0,0.9,0.2,1.1,0.6c0.4-0.4,0.9-0.6,1.3-0.6
										c0.8,0,1.3,0.5,1.3,1.4V-1h-1v-4.3c0-0.4-0.2-0.6-0.5-0.6c-0.3,0-0.6,0.1-0.9,0.4V-1h-1v-4.3c0-0.4-0.2-0.6-0.6-0.6
										c-0.3,0-0.6,0.1-0.9,0.4V-1h-1V-6.7z"/>
									<path d="M72.5-5.7h-2.3v-1h3.4V-2h2.3v1h-3.4V-5.7z M72.1-8.8c0-0.5,0.4-0.9,0.9-0.9c0.5,0,0.9,0.4,0.9,0.9
										c0,0.5-0.4,0.9-0.9,0.9C72.5-7.9,72.1-8.3,72.1-8.8z"/>
									<path d="M79.2-3v-5.5h-2.3v-1h3.4v6.3c0,0.9,0.3,1.3,1.2,1.3c0.5,0,1-0.1,1.4-0.4l0.3,0.9C82.6-1,82-0.9,81.4-0.9
										C79.9-0.9,79.2-1.6,79.2-3z"/>
									<path d="M83.6,1.3L84,0.4c0.3,0.2,0.6,0.3,1,0.3c0.6,0,1-0.3,1.3-1.1l0.2-0.5l-2.4-5.7h1.2l1.8,4.3l1.7-4.3h1.1L87.2,0
										c-0.5,1.2-1,1.6-2.1,1.6C84.5,1.7,84.1,1.6,83.6,1.3z"/>
									<path d="M100.4-5.7H98v-1h3.4V-2h2.3v1h-3.4V-5.7z M99.9-8.8c0-0.5,0.4-0.9,0.9-0.9c0.5,0,0.9,0.4,0.9,0.9
										c0,0.5-0.4,0.9-0.9,0.9C100.3-7.9,99.9-8.3,99.9-8.8z"/>
									<path d="M105.4-6.7h0.8l0.1,0.6c0.6-0.5,1.3-0.7,2-0.7c1.3,0,2,0.7,2,2.1V-1h-1.1v-3.5c0-0.9-0.3-1.3-1.2-1.3
										c-0.6,0-1.1,0.2-1.6,0.5V-1h-1.1V-6.7z"/>
									<path d="M112.3-3.8c0-1.8,1.2-3,3-3c0.8,0,1.4,0.2,2.1,0.6L117-5.3c-0.6-0.3-1.1-0.5-1.6-0.5c-1.2,0-1.9,0.7-1.9,2
										c0,1.3,0.7,2,1.9,2c0.6,0,1.2-0.2,1.8-0.6l0.4,0.9c-0.7,0.5-1.4,0.7-2.2,0.7C113.4-0.9,112.3-2,112.3-3.8z"/>
									<path d="M118.9-3.8c0-1.8,1.2-3,2.9-3c1.7,0,2.9,1.2,2.9,3c0,1.8-1.2,3-2.9,3C120.1-0.9,118.9-2.1,118.9-3.8z M123.6-3.8
										c0-1.2-0.7-2-1.8-2s-1.8,0.7-1.8,2c0,1.2,0.7,2,1.8,2S123.6-2.6,123.6-3.8z"/>
									<path d="M125.9-6.7h0.7l0.1,0.4c0.4-0.4,0.9-0.6,1.4-0.6c0.5,0,0.9,0.2,1.1,0.6c0.4-0.4,0.9-0.6,1.3-0.6
										c0.8,0,1.3,0.5,1.3,1.4V-1h-1v-4.3c0-0.4-0.2-0.6-0.5-0.6c-0.3,0-0.6,0.1-0.9,0.4V-1h-1v-4.3c0-0.4-0.2-0.6-0.6-0.6
										c-0.3,0-0.6,0.1-0.9,0.4V-1h-1V-6.7z"/>
									<path d="M132.9-3.8c0-1.8,1.2-3,2.9-3c1.7,0,2.7,1.1,2.7,2.8c0,0.2,0,0.4,0,0.6H134c0.1,1.1,0.9,1.6,2.1,1.6
										c0.7,0,1.2-0.2,1.8-0.6l0.4,0.8c-0.7,0.5-1.5,0.7-2.3,0.7C134.1-0.9,132.9-2,132.9-3.8z M137.5-4.3
										c-0.1-0.9-0.7-1.5-1.7-1.5c-1,0-1.6,0.6-1.8,1.5H137.5z"/>
								</g>
							</g>
						</g>
						<path pointer-events="none" class="st6" d="M0,0"/>
					</g>
				</g>
			</g>
			<path class="st6" d="M0,0"/>
		</g>
	</g>
</g>
</svg>
