<?xml version="1.0" encoding="utf-8"?>
<!-- Generator: Adobe Illustrator 26.2.1, SVG Export Plug-In . SVG Version: 6.00 Build 0)  -->
<svg version="1.1" id="Layer_1" xmlns="http://www.w3.org/2000/svg" xmlns:xlink="http://www.w3.org/1999/xlink" x="0px" y="0px"
	 viewBox="0 0 244 161" style="enable-background:new 0 0 244 161;" xml:space="preserve">
<style type="text/css">
	.st0{fill:#FFFFFF;}
	.st1{fill:none;}
	.st2{fill:none;stroke:#DDDDDD;stroke-miterlimit:10;}
	.st3{display:none;fill:none;stroke:#DDDDDD;stroke-miterlimit:10;}
	.st4{fill:none;stroke:#888888;stroke-miterlimit:10;}
	.st5{enable-background:new    ;}
	.st6{display:none;}
	.st7{fill:none;stroke:#FF8500;stroke-width:2;stroke-miterlimit:10;}
	.st8{display:none;fill:none;stroke:#FF8500;stroke-width:2;stroke-miterlimit:10;}
	.st9{fill:none;stroke:#B2B2B2;stroke-width:2;stroke-miterlimit:10;}
	.st10{display:none;fill:none;stroke:#B2B2B2;stroke-width:2;stroke-miterlimit:10;}
</style>
<rect class="st0" width="244" height="161"/>
<g transform="translate(34,38)">
	<g>
		<g transform="translate(0,0)">
			<path class="st1" d="M0,0h200v100H0V0z"/>
			<g>
				<g>
					<g transform="translate(0.5,0.5)">
						<path pointer-events="none" class="st1" d="M0,0L0,0L0,0L0,0z"/>
						<g>
							<g pointer-events="none">
								<line class="st2" x1="0" y1="100" x2="200" y2="100"/>
								<line class="st2" x1="0" y1="67" x2="200" y2="67"/>
								<line class="st2" x1="0" y1="33" x2="200" y2="33"/>
								<line class="st2" x1="0" y1="0" x2="200" y2="0"/>
							</g>
						</g>
						<path pointer-events="none" class="st3" d="M0,0"/>
					</g>
				</g>
				<g>
					<g transform="translate(0.5,100.5)">
						<path pointer-events="none" class="st1" d="M0,0L0,0L0,0L0,0z"/>
						<g>
							<g pointer-events="none">
								<line class="st4" x1="18" y1="0" x2="18" y2="5"/>
								<line class="st4" x1="109" y1="0" x2="109" y2="5"/>
								<line class="st4" x1="191" y1="0" x2="191" y2="5"/>
							</g>
							<g pointer-events="none">
								<g class="st5">
									<path d="M5.2,15.2c0-1.9,0.6-2.8,2.2-3.3l0.9-0.3c0.7-0.2,1.1-0.5,1.1-1.2c0-0.9-0.6-1.3-1.7-1.3c-0.8,0-1.5,0.3-2.1,0.8
										L5.2,9.2C6,8.6,6.8,8.3,7.7,8.3c1.6,0,2.6,0.8,2.6,2.2c0,1.1-0.5,1.7-1.8,2l-0.9,0.3c-1.1,0.3-1.5,0.9-1.5,2.4h4.3V16H5.2
										V15.2z"/>
									<path d="M11.9,12.2c0-2.5,1-3.9,2.8-3.9s2.8,1.4,2.8,3.9c0,2.5-1,3.9-2.8,3.9S11.9,14.8,11.9,12.2z M16.2,10.1
										c-0.3-0.6-0.8-0.9-1.5-0.9c-1.3,0-1.9,1.1-1.9,3.1c0,0.5,0,0.9,0.1,1.3L16.2,10.1z M16.6,12.2c0-0.5,0-0.9-0.1-1.3
										l-3.4,3.5c0.3,0.6,0.8,0.9,1.5,0.9C16,15.3,16.6,14.2,16.6,12.2z"/>
									<path d="M18.8,12.2c0-2.5,1-3.9,2.8-3.9s2.8,1.4,2.8,3.9c0,2.5-1,3.9-2.8,3.9S18.8,14.8,18.8,12.2z M23.2,10.1
										c-0.3-0.6-0.8-0.9-1.5-0.9c-1.3,0-1.9,1.1-1.9,3.1c0,0.5,0,0.9,0.1,1.3L23.2,10.1z M23.6,12.2c0-0.5,0-0.9-0.1-1.3
										l-3.4,3.5c0.3,0.6,0.8,0.9,1.5,0.9C22.9,15.3,23.6,14.2,23.6,12.2z"/>
									<path d="M25.8,12.2c0-2.5,1-3.9,2.8-3.9c1.8,0,2.8,1.4,2.8,3.9c0,2.5-1,3.9-2.8,3.9C26.8,16.1,25.8,14.8,25.8,12.2z
										 M30.2,10.1c-0.3-0.6-0.8-0.9-1.5-0.9c-1.3,0-1.9,1.1-1.9,3.1c0,0.5,0,0.9,0.1,1.3L30.2,10.1z M30.6,12.2
										c0-0.5,0-0.9-0.1-1.3l-3.4,3.5c0.3,0.6,0.8,0.9,1.5,0.9C29.9,15.3,30.6,14.2,30.6,12.2z"/>
								</g>
								<g class="st5">
									<path d="M96.1,15.2c0-1.9,0.6-2.8,2.2-3.3l0.9-0.3c0.7-0.2,1.1-0.5,1.1-1.2c0-0.9-0.6-1.3-1.7-1.3c-0.8,0-1.5,0.3-2.1,0.8
										l-0.4-0.7c0.8-0.7,1.6-0.9,2.5-0.9c1.6,0,2.6,0.8,2.6,2.2c0,1.1-0.5,1.7-1.8,2l-0.9,0.3c-1.1,0.3-1.5,0.9-1.5,2.4h4.3V16
										h-5.1V15.2z"/>
									<path d="M102.8,12.2c0-2.5,1-3.9,2.8-3.9c1.8,0,2.8,1.4,2.8,3.9c0,2.5-1,3.9-2.8,3.9C103.8,16.1,102.8,14.8,102.8,12.2z
										 M107.2,10.1c-0.3-0.6-0.8-0.9-1.5-0.9c-1.3,0-1.9,1.1-1.9,3.1c0,0.5,0,0.9,0.1,1.3L107.2,10.1z M107.6,12.2
										c0-0.5,0-0.9-0.1-1.3l-3.4,3.5c0.3,0.6,0.8,0.9,1.5,0.9C106.9,15.3,107.6,14.2,107.6,12.2z"/>
									<path d="M109.9,15.2h2.3V9.9l-1.8,1.4l-0.4-0.5l2.5-2.4h0.6v6.8h2.3V16h-5.4V15.2z"/>
									<path d="M116.7,12.2c0-2.5,1-3.9,2.8-3.9c1.8,0,2.8,1.4,2.8,3.9c0,2.5-1,3.9-2.8,3.9C117.7,16.1,116.7,14.8,116.7,12.2z
										 M121.1,10.1c-0.3-0.6-0.8-0.9-1.5-0.9c-1.3,0-1.9,1.1-1.9,3.1c0,0.5,0,0.9,0.1,1.3L121.1,10.1z M121.5,12.2
										c0-0.5,0-0.9-0.1-1.3l-3.4,3.5c0.3,0.6,0.8,0.9,1.5,0.9C120.8,15.3,121.5,14.2,121.5,12.2z"/>
								</g>
								<g class="st5">
									<path d="M177.9,15.2c0-1.9,0.6-2.8,2.2-3.3l0.9-0.3c0.7-0.2,1.1-0.5,1.1-1.2c0-0.9-0.6-1.3-1.7-1.3c-0.8,0-1.5,0.3-2.1,0.8
										l-0.4-0.7c0.8-0.7,1.6-0.9,2.5-0.9c1.6,0,2.6,0.8,2.6,2.2c0,1.1-0.5,1.7-1.8,2l-0.9,0.3c-1.1,0.3-1.5,0.9-1.5,2.4h4.3V16
										h-5.1V15.2z"/>
									<path d="M184.6,12.2c0-2.5,1-3.9,2.8-3.9c1.8,0,2.8,1.4,2.8,3.9c0,2.5-1,3.9-2.8,3.9C185.6,16.1,184.6,14.8,184.6,12.2z
										 M189,10.1c-0.3-0.6-0.8-0.9-1.5-0.9c-1.3,0-1.9,1.1-1.9,3.1c0,0.5,0,0.9,0.1,1.3L189,10.1z M189.4,12.2
										c0-0.5,0-0.9-0.1-1.3l-3.4,3.5c0.3,0.6,0.8,0.9,1.5,0.9C188.7,15.3,189.4,14.2,189.4,12.2z"/>
									<path d="M191.7,15.2h2.3V9.9l-1.8,1.4l-0.4-0.5l2.5-2.4h0.6v6.8h2.3V16h-5.4V15.2z"/>
									<path d="M199.1,15.3c2.6-0.1,3.9-1.1,4.1-3h0c-0.6,0.6-1.3,0.9-2.1,0.9c-1.5,0-2.4-1-2.4-2.4c0-1.5,1.1-2.5,2.6-2.5
										c1.8,0,2.8,1.3,2.8,3.5c0,2.8-1.7,4.3-4.9,4.4L199.1,15.3z M203.2,11.3c-0.1-1.4-0.8-2.2-2-2.2c-1,0-1.7,0.6-1.7,1.7
										c0,1,0.6,1.6,1.7,1.6C201.9,12.4,202.6,12,203.2,11.3z"/>
								</g>
							</g>
						</g>
						<path pointer-events="none" class="st6" d="M0,0"/>
					</g>
				</g>
				<g>
					<g transform="translate(0.5,0.5)">
						<path pointer-events="none" class="st1" d="M0,0L0,0L0,0L0,0z"/>
						<g>
							<g pointer-events="none">
								<g class="st5">
									<path d="M-21.3,100.2c0-2.5,1-3.9,2.8-3.9c1.8,0,2.8,1.4,2.8,3.9c0,2.5-1,3.9-2.8,3.9C-20.3,104.1-21.3,102.8-21.3,100.2z
										 M-16.9,98.1c-0.3-0.6-0.8-0.9-1.5-0.9c-1.3,0-1.9,1.1-1.9,3.1c0,0.5,0,0.9,0.1,1.3L-16.9,98.1z M-16.5,100.2
										c0-0.5,0-0.9-0.1-1.3l-3.4,3.5c0.3,0.6,0.8,0.9,1.5,0.9C-17.2,103.3-16.5,102.2-16.5,100.2z"/>
									<path d="M-14.8,103.5l2.4-2.7l0.4,0.4l-2.2,2.9L-14.8,103.5z M-14.7,98.1c0-1.1,0.6-1.8,1.6-1.8c1,0,1.6,0.7,1.6,1.8
										c0,1.1-0.6,1.8-1.6,1.8C-14.1,99.9-14.7,99.2-14.7,98.1z M-12.3,98.1c0-0.7-0.3-1.1-0.8-1.1c-0.5,0-0.8,0.4-0.8,1.1
										c0,0.7,0.3,1.1,0.8,1.1C-12.6,99.2-12.3,98.8-12.3,98.1z M-11.5,102.3c0-1.1,0.6-1.8,1.6-1.8c1,0,1.6,0.7,1.6,1.8
										c0,1.1-0.6,1.8-1.6,1.8C-10.9,104.1-11.5,103.4-11.5,102.3z M-11,99.3l2.2-2.9l0.7,0.6l-2.4,2.7L-11,99.3z M-9,102.3
										c0-0.7-0.3-1.1-0.8-1.1c-0.5,0-0.8,0.4-0.8,1.1s0.3,1.1,0.8,1.1C-9.3,103.5-9,103.1-9,102.3z"/>
								</g>
								<g class="st5">
									<path d="M-28,69.9c0-1.9,0.6-2.8,2.2-3.3l0.9-0.3c0.7-0.2,1.1-0.5,1.1-1.2c0-0.9-0.6-1.3-1.7-1.3c-0.8,0-1.5,0.3-2.1,0.8
										l-0.4-0.7c0.8-0.7,1.6-0.9,2.5-0.9c1.6,0,2.6,0.8,2.6,2.2c0,1.1-0.5,1.7-1.8,2l-0.9,0.3c-1.1,0.3-1.5,0.9-1.5,2.4h4.3v0.8
										H-28V69.9z"/>
									<path d="M-21.3,66.9c0-2.5,1-3.9,2.8-3.9s2.8,1.4,2.8,3.9c0,2.5-1,3.9-2.8,3.9S-21.3,69.4-21.3,66.9z M-16.9,64.8
										c-0.3-0.6-0.8-0.9-1.5-0.9c-1.3,0-1.9,1.1-1.9,3.1c0,0.5,0,0.9,0.1,1.3L-16.9,64.8z M-16.5,66.9c0-0.5,0-0.9-0.1-1.3
										L-20,69c0.3,0.6,0.8,0.9,1.5,0.9C-17.2,70-16.5,68.9-16.5,66.9z"/>
									<path d="M-14.8,70.1l2.4-2.7l0.4,0.4l-2.2,2.9L-14.8,70.1z M-14.7,64.8c0-1.1,0.6-1.8,1.6-1.8s1.6,0.7,1.6,1.8
										c0,1.1-0.6,1.8-1.6,1.8S-14.7,65.9-14.7,64.8z M-12.3,64.8c0-0.7-0.3-1.1-0.8-1.1s-0.8,0.4-0.8,1.1c0,0.7,0.3,1.1,0.8,1.1
										S-12.3,65.5-12.3,64.8z M-11.5,69c0-1.1,0.6-1.8,1.6-1.8s1.6,0.7,1.6,1.8c0,1.1-0.6,1.8-1.6,1.8S-11.5,70.1-11.5,69z
										 M-11,65.9l2.2-2.9l0.7,0.6l-2.4,2.7L-11,65.9z M-9,69c0-0.7-0.3-1.1-0.8-1.1s-0.8,0.4-0.8,1.1s0.3,1.1,0.8,1.1
										S-9,69.7-9,69z"/>
								</g>
								<g class="st5">
									<path d="M-24.6,35.6h-3.9v-0.7l3.1-5.1h1l-3,5h2.8V32l0.9-0.5v3.2h1.4v0.8h-1.4v1.8h-0.9V35.6z"/>
									<path d="M-21.3,33.6c0-2.5,1-3.9,2.8-3.9s2.8,1.4,2.8,3.9c0,2.5-1,3.9-2.8,3.9S-21.3,36.1-21.3,33.6z M-16.9,31.4
										c-0.3-0.6-0.8-0.9-1.5-0.9c-1.3,0-1.9,1.1-1.9,3.1c0,0.5,0,0.9,0.1,1.3L-16.9,31.4z M-16.5,33.6c0-0.5,0-0.9-0.1-1.3
										l-3.4,3.5c0.3,0.6,0.8,0.9,1.5,0.9C-17.2,36.6-16.5,35.6-16.5,33.6z"/>
									<path d="M-14.8,36.8l2.4-2.7l0.4,0.4l-2.2,2.9L-14.8,36.8z M-14.7,31.4c0-1.1,0.6-1.8,1.6-1.8s1.6,0.7,1.6,1.8
										c0,1.1-0.6,1.8-1.6,1.8S-14.7,32.5-14.7,31.4z M-12.3,31.4c0-0.7-0.3-1.1-0.8-1.1s-0.8,0.4-0.8,1.1c0,0.7,0.3,1.1,0.8,1.1
										S-12.3,32.2-12.3,31.4z M-11.5,35.7c0-1.1,0.6-1.8,1.6-1.8s1.6,0.7,1.6,1.8c0,1.1-0.6,1.8-1.6,1.8S-11.5,36.8-11.5,35.7z
										 M-11,32.6l2.2-2.9l0.7,0.6l-2.4,2.7L-11,32.6z M-9,35.7c0-0.7-0.3-1.1-0.8-1.1s-0.8,0.4-0.8,1.1s0.3,1.1,0.8,1.1
										S-9,36.4-9,35.7z"/>
								</g>
								<g class="st5">
									<path d="M-28.1,0.7c0-2.8,1.7-4.3,4.9-4.4l0,0.8c-2.6,0.1-3.9,1.1-4.1,3h0c0.6-0.6,1.3-0.9,2.1-0.9c1.5,0,2.4,1,2.4,2.4
										c0,1.5-1.1,2.5-2.6,2.5C-27,4.1-28.1,2.9-28.1,0.7z M-23.5,1.6c0-1-0.6-1.6-1.7-1.6c-0.8,0-1.5,0.3-2,1
										c0.1,1.4,0.8,2.2,2,2.2C-24.2,3.3-23.5,2.7-23.5,1.6z"/>
									<path d="M-21.3,0.2c0-2.5,1-3.9,2.8-3.9s2.8,1.4,2.8,3.9c0,2.5-1,3.9-2.8,3.9S-21.3,2.8-21.3,0.2z M-16.9-1.9
										c-0.3-0.6-0.8-0.9-1.5-0.9c-1.3,0-1.9,1.1-1.9,3.1c0,0.5,0,0.9,0.1,1.3L-16.9-1.9z M-16.5,0.2c0-0.5,0-0.9-0.1-1.3L-20,2.4
										c0.3,0.6,0.8,0.9,1.5,0.9C-17.2,3.3-16.5,2.2-16.5,0.2z"/>
									<path d="M-14.8,3.5l2.4-2.7l0.4,0.4L-14.1,4L-14.8,3.5z M-14.7-1.9c0-1.1,0.6-1.8,1.6-1.8s1.6,0.7,1.6,1.8
										c0,1.1-0.6,1.8-1.6,1.8S-14.7-0.8-14.7-1.9z M-12.3-1.9c0-0.7-0.3-1.1-0.8-1.1s-0.8,0.4-0.8,1.1c0,0.7,0.3,1.1,0.8,1.1
										S-12.3-1.2-12.3-1.9z M-11.5,2.3c0-1.1,0.6-1.8,1.6-1.8s1.6,0.7,1.6,1.8c0,1.1-0.6,1.8-1.6,1.8S-11.5,3.4-11.5,2.3z
										 M-11-0.7l2.2-2.9L-8.2-3l-2.4,2.7L-11-0.7z M-9,2.3c0-0.7-0.3-1.1-0.8-1.1s-0.8,0.4-0.8,1.1s0.3,1.1,0.8,1.1S-9,3.1-9,2.3
										z"/>
								</g>
							</g>
						</g>
						<path pointer-events="none" class="st6" d="M0,0"/>
					</g>
				</g>
				<g>
					<g transform="translate(0,0)">
						<path class="st1" d="M0,0h200v100H0V0z"/>
						<g>
							<g>
								<path class="st7" d="M18.2,4.4l90.9,38l81.8-40.3"/>
							</g>
						</g>
						<path class="st8" d="M0,0"/>
					</g>
					<g transform="translate(0,0)">
						<path class="st1" d="M0,0h200v100H0V0z"/>
						<g>
							<g>
								<path class="st9" d="M18.2,54.1l90.9,8.2l81.8-28"/>
							</g>
						</g>
						<path class="st10" d="M0,0"/>
					</g>
				</g>
				<g>
					<g transform="translate(-28.879974365234375,-22)">
						<path pointer-events="none" class="st1" d="M0,0L0,0L0,0L0,0z"/>
						<g>
							<g pointer-events="none">
								<g class="st5">
									<path d="M0.9-8.8h1.3L5.1-3v-5.8h1V-1H5L1.9-7.2V-1h-1V-8.8z"/>
									<path d="M7.6-3.8c0-1.8,1.2-3,2.9-3c1.7,0,2.9,1.2,2.9,3c0,1.8-1.2,3-2.9,3C8.7-0.9,7.6-2.1,7.6-3.8z M12.2-3.8
										c0-1.2-0.7-2-1.8-2s-1.8,0.7-1.8,2c0,1.2,0.7,2,1.8,2S12.2-2.6,12.2-3.8z"/>
									<path d="M15-6.7h0.8l0.1,0.6c0.6-0.5,1.3-0.7,2-0.7c1.3,0,2,0.7,2,2.1V-1h-1.1v-3.5c0-0.9-0.3-1.3-1.2-1.3
										c-0.6,0-1.1,0.2-1.6,0.5V-1H15V-6.7z"/>
									<path d="M22-4.8h4.8v0.9H22V-4.8z"/>
									<path d="M28-6.7h1l1,4.3L30.9-6h0.9l1,3.7l1-4.3h0.9L33.4-1h-1.1l-0.9-3.7L30.4-1h-1.1L28-6.7z"/>
									<path d="M35.8-9.5h1.1v3.3c0.6-0.4,1.2-0.6,1.9-0.6c1.3,0,2,0.7,2,2.1V-1h-1.1v-3.5c0-0.9-0.3-1.3-1.2-1.3
										c-0.6,0-1.1,0.2-1.6,0.5V-1h-1.1V-9.5z"/>
									<path d="M44.7-5.7h-2.3v-1h3.4V-2h2.3v1h-3.4V-5.7z M44.2-8.8c0-0.5,0.4-0.9,0.9-0.9c0.5,0,0.9,0.4,0.9,0.9
										c0,0.5-0.4,0.9-0.9,0.9C44.6-7.9,44.2-8.3,44.2-8.8z"/>
									<path d="M51.1-3v-2.7h-1.8v-1h1.8v-1.8l1.1-0.5v2.3h2.3v1h-2.3v2.5c0,0.9,0.3,1.3,1.2,1.3c0.5,0,0.9-0.1,1.4-0.4l0.3,0.9
										c-0.6,0.3-1.2,0.4-1.8,0.4C51.8-0.9,51.1-1.6,51.1-3z"/>
									<path d="M56.3-3.8c0-1.8,1.2-3,2.9-3C60.9-6.8,62-5.7,62-4c0,0.2,0,0.4,0,0.6h-4.5c0.1,1.1,0.9,1.6,2.1,1.6
										c0.7,0,1.2-0.2,1.8-0.6l0.4,0.8c-0.7,0.5-1.5,0.7-2.3,0.7C57.5-0.9,56.3-2,56.3-3.8z M60.9-4.3c-0.1-0.9-0.7-1.5-1.7-1.5
										c-1,0-1.6,0.6-1.8,1.5H60.9z"/>
									<path d="M70.5-6.7h0.8l0.1,0.6c0.6-0.5,1.3-0.7,2-0.7c1.5,0,2.5,1.2,2.5,3c0,1.8-1,3-2.5,3c-0.6,0-1.2-0.2-1.8-0.6v3h-1.1
										V-6.7z M74.8-3.8c0-1.3-0.6-2-1.6-2c-0.5,0-1.1,0.2-1.6,0.5v2.9c0.5,0.3,1.1,0.5,1.6,0.5C74.2-1.9,74.8-2.6,74.8-3.8z"/>
									<path d="M77.2-3.8c0-1.8,1.2-3,2.9-3c1.7,0,2.9,1.2,2.9,3c0,1.8-1.2,3-2.9,3C78.3-0.9,77.2-2.1,77.2-3.8z M81.8-3.8
										c0-1.2-0.7-2-1.8-2s-1.8,0.7-1.8,2c0,1.2,0.7,2,1.8,2S81.8-2.6,81.8-3.8z"/>
									<path d="M84.5-6.7h0.8l0.1,0.6c0.6-0.5,1.3-0.7,2-0.7c1.5,0,2.5,1.2,2.5,3c0,1.8-1,3-2.5,3c-0.6,0-1.2-0.2-1.8-0.6v3h-1.1
										V-6.7z M88.7-3.8c0-1.3-0.6-2-1.6-2c-0.5,0-1.1,0.2-1.6,0.5v2.9C86-2,86.6-1.9,87.1-1.9C88.1-1.9,88.7-2.6,88.7-3.8z"/>
									<path d="M91.4-3v-3.7h1.1v3.5c0,0.9,0.3,1.3,1.2,1.3c0.6,0,1.1-0.2,1.6-0.5v-4.3h1.1V-1h-0.8l-0.1-0.6
										c-0.6,0.5-1.3,0.7-2,0.7C92.1-0.9,91.4-1.6,91.4-3z"/>
									<path d="M100.1-3v-5.5h-2.3v-1h3.4v6.3c0,0.9,0.3,1.3,1.2,1.3c0.5,0,1-0.1,1.4-0.4l0.3,0.9c-0.6,0.3-1.2,0.4-1.8,0.4
										C100.8-0.9,100.1-1.6,100.1-3z"/>
									<path d="M105.1-2.7c0-1.1,0.7-1.7,2.1-1.7h2v-0.2c0-0.9-0.4-1.3-1.5-1.3c-0.7,0-1.4,0.2-2,0.5l-0.3-0.9
										c0.7-0.4,1.5-0.6,2.4-0.6c1.7,0,2.5,0.7,2.5,2.2V-1h-0.8l-0.1-0.6c-0.6,0.5-1.3,0.7-2.1,0.7C105.9-0.9,105.1-1.5,105.1-2.7
										z M109.3-2.4v-1.1h-2c-0.7,0-1.1,0.3-1.1,0.8c0,0.6,0.4,0.9,1.3,0.9C108.2-1.8,108.8-2,109.3-2.4z"/>
									<path d="M113.7-3v-2.7H112v-1h1.8v-1.8l1.1-0.5v2.3h2.3v1h-2.3v2.5c0,0.9,0.3,1.3,1.2,1.3c0.5,0,0.9-0.1,1.4-0.4l0.3,0.9
										c-0.6,0.3-1.2,0.4-1.8,0.4C114.5-0.9,113.7-1.6,113.7-3z"/>
									<path d="M121.3-5.7h-2.3v-1h3.4V-2h2.3v1h-3.4V-5.7z M120.8-8.8c0-0.5,0.4-0.9,0.9-0.9c0.5,0,0.9,0.4,0.9,0.9
										c0,0.5-0.4,0.9-0.9,0.9C121.2-7.9,120.8-8.3,120.8-8.8z"/>
									<path d="M125.9-3.8c0-1.8,1.2-3,2.9-3c1.7,0,2.9,1.2,2.9,3c0,1.8-1.2,3-2.9,3C127-0.9,125.9-2.1,125.9-3.8z M130.5-3.8
										c0-1.2-0.7-2-1.8-2s-1.8,0.7-1.8,2c0,1.2,0.7,2,1.8,2S130.5-2.6,130.5-3.8z"/>
									<path d="M133.3-6.7h0.8l0.1,0.6c0.6-0.5,1.3-0.7,2-0.7c1.3,0,2,0.7,2,2.1V-1h-1.1v-3.5c0-0.9-0.3-1.3-1.2-1.3
										c-0.6,0-1.1,0.2-1.6,0.5V-1h-1.1V-6.7z"/>
								</g>
							</g>
						</g>
						<path pointer-events="none" class="st6" d="M0,0"/>
					</g>
				</g>
			</g>
			<path class="st6" d="M0,0"/>
		</g>
	</g>
</g>
</svg>
