<?xml version="1.0" encoding="utf-8"?>
<!-- Generator: Adobe Illustrator 26.2.1, SVG Export Plug-In . SVG Version: 6.00 Build 0)  -->
<svg version="1.1" id="Layer_1" xmlns="http://www.w3.org/2000/svg" xmlns:xlink="http://www.w3.org/1999/xlink" x="0px" y="0px"
	 viewBox="0 0 256 151" style="enable-background:new 0 0 256 151;" xml:space="preserve">
<style type="text/css">
	.st0{fill:#FFFFFF;}
	.st1{fill:none;}
	.st2{fill:none;stroke:#DDDDDD;stroke-miterlimit:10;}
	.st3{display:none;fill:none;stroke:#DDDDDD;stroke-miterlimit:10;}
	.st4{fill:none;stroke:#888888;stroke-miterlimit:10;}
	.st5{enable-background:new    ;}
	.st6{display:none;}
	.st7{fill:none;stroke:#FF8500;stroke-width:2;stroke-miterlimit:10;}
	.st8{display:none;fill:none;stroke:#FF8500;stroke-width:2;stroke-miterlimit:10;}
	.st9{fill:none;stroke:#B2B2B2;stroke-width:2;stroke-miterlimit:10;}
	.st10{display:none;fill:none;stroke:#B2B2B2;stroke-width:2;stroke-miterlimit:10;}
</style>
<rect class="st0" width="256" height="151"/>
<g transform="translate(48,29)">
	<g>
		<g transform="translate(0,0)">
			<path class="st1" d="M0,0h200v100H0V0z"/>
			<g>
				<g>
					<g transform="translate(0.5,0.5)">
						<path pointer-events="none" class="st1" d="M0,0L0,0L0,0L0,0z"/>
						<g>
							<g pointer-events="none">
								<line class="st2" x1="0" y1="100" x2="200" y2="100"/>
								<line class="st2" x1="0" y1="69" x2="200" y2="69"/>
								<line class="st2" x1="0" y1="38" x2="200" y2="38"/>
								<line class="st2" x1="0" y1="6" x2="200" y2="6"/>
							</g>
						</g>
						<path pointer-events="none" class="st3" d="M0,0"/>
					</g>
				</g>
				<g>
					<g transform="translate(0.5,100.5)">
						<path pointer-events="none" class="st1" d="M0,0L0,0L0,0L0,0z"/>
						<g>
							<g pointer-events="none">
								<line class="st4" x1="18" y1="0" x2="18" y2="5"/>
								<line class="st4" x1="109" y1="0" x2="109" y2="5"/>
								<line class="st4" x1="191" y1="0" x2="191" y2="5"/>
							</g>
							<g pointer-events="none">
								<g class="st5">
									<path d="M7.3,14.4c0-1.5,0.5-2.3,1.8-2.7l0.8-0.2c0.6-0.2,0.9-0.4,0.9-1c0-0.7-0.5-1.1-1.4-1.1c-0.7,0-1.2,0.2-1.8,0.7
										L7.4,9.4C8,8.8,8.7,8.6,9.5,8.6c1.4,0,2.2,0.7,2.2,1.8c0,0.9-0.4,1.4-1.5,1.7l-0.8,0.2c-0.9,0.3-1.3,0.7-1.3,2h3.5V15H7.3
										V14.4z"/>
									<path d="M12.9,11.9c0-2.1,0.8-3.3,2.4-3.3s2.4,1.1,2.4,3.3s-0.8,3.3-2.4,3.3S12.9,14,12.9,11.9z M16.6,10.1
										c-0.3-0.5-0.7-0.8-1.3-0.8c-1.1,0-1.6,0.9-1.6,2.6c0,0.4,0,0.8,0.1,1.1L16.6,10.1z M16.9,11.9c0-0.4,0-0.8-0.1-1.1L14,13.6
										c0.3,0.5,0.7,0.8,1.3,0.8C16.3,14.4,16.9,13.5,16.9,11.9z"/>
									<path d="M18.7,11.9c0-2.1,0.8-3.3,2.4-3.3s2.4,1.1,2.4,3.3s-0.8,3.3-2.4,3.3S18.7,14,18.7,11.9z M22.4,10.1
										c-0.3-0.5-0.7-0.8-1.3-0.8c-1.1,0-1.6,0.9-1.6,2.6c0,0.4,0,0.8,0.1,1.1L22.4,10.1z M22.7,11.9c0-0.4,0-0.8-0.1-1.1
										l-2.8,2.9c0.3,0.5,0.7,0.8,1.3,0.8C22.1,14.4,22.7,13.5,22.7,11.9z"/>
									<path d="M24.5,11.9c0-2.1,0.8-3.3,2.4-3.3s2.4,1.1,2.4,3.3s-0.8,3.3-2.4,3.3S24.5,14,24.5,11.9z M28.2,10.1
										c-0.3-0.5-0.7-0.8-1.3-0.8c-1.1,0-1.6,0.9-1.6,2.6c0,0.4,0,0.8,0.1,1.1L28.2,10.1z M28.5,11.9c0-0.4,0-0.8-0.1-1.1
										l-2.8,2.9c0.3,0.5,0.7,0.8,1.3,0.8C27.9,14.4,28.5,13.5,28.5,11.9z"/>
								</g>
								<g class="st5">
									<path d="M98.3,14.4c0-1.5,0.5-2.3,1.8-2.7l0.8-0.2c0.6-0.2,0.9-0.4,0.9-1c0-0.7-0.5-1.1-1.4-1.1c-0.7,0-1.2,0.2-1.8,0.7
										l-0.4-0.6c0.6-0.5,1.3-0.8,2.1-0.8c1.4,0,2.2,0.7,2.2,1.8c0,0.9-0.4,1.4-1.5,1.7l-0.8,0.2c-0.9,0.3-1.3,0.7-1.3,2h3.5V15
										h-4.3V14.4z"/>
									<path d="M103.8,11.9c0-2.1,0.8-3.3,2.4-3.3s2.4,1.1,2.4,3.3s-0.8,3.3-2.4,3.3S103.8,14,103.8,11.9z M107.5,10.1
										c-0.3-0.5-0.7-0.8-1.3-0.8c-1.1,0-1.6,0.9-1.6,2.6c0,0.4,0,0.8,0.1,1.1L107.5,10.1z M107.8,11.9c0-0.4,0-0.8-0.1-1.1
										l-2.8,2.9c0.3,0.5,0.7,0.8,1.3,0.8C107.3,14.4,107.8,13.5,107.8,11.9z"/>
									<path d="M109.7,14.3h1.9V9.9l-1.5,1.1l-0.3-0.4l2-2h0.5v5.7h1.9V15h-4.5V14.3z"/>
									<path d="M115.4,11.9c0-2.1,0.8-3.3,2.4-3.3s2.4,1.1,2.4,3.3s-0.8,3.3-2.4,3.3S115.4,14,115.4,11.9z M119.1,10.1
										c-0.3-0.5-0.7-0.8-1.3-0.8c-1.1,0-1.6,0.9-1.6,2.6c0,0.4,0,0.8,0.1,1.1L119.1,10.1z M119.4,11.9c0-0.4,0-0.8-0.1-1.1
										l-2.8,2.9c0.3,0.5,0.7,0.8,1.3,0.8C118.9,14.4,119.4,13.5,119.4,11.9z"/>
								</g>
								<g class="st5">
									<path d="M180.1,14.4c0-1.5,0.5-2.3,1.8-2.7l0.8-0.2c0.6-0.2,0.9-0.4,0.9-1c0-0.7-0.5-1.1-1.4-1.1c-0.7,0-1.2,0.2-1.8,0.7
										l-0.4-0.6c0.6-0.5,1.3-0.8,2.1-0.8c1.4,0,2.2,0.7,2.2,1.8c0,0.9-0.4,1.4-1.5,1.7l-0.8,0.2c-0.9,0.3-1.3,0.7-1.3,2h3.5V15
										h-4.3V14.4z"/>
									<path d="M185.6,11.9c0-2.1,0.8-3.3,2.4-3.3s2.4,1.1,2.4,3.3s-0.8,3.3-2.4,3.3S185.6,14,185.6,11.9z M189.3,10.1
										c-0.3-0.5-0.7-0.8-1.3-0.8c-1.1,0-1.6,0.9-1.6,2.6c0,0.4,0,0.8,0.1,1.1L189.3,10.1z M189.6,11.9c0-0.4,0-0.8-0.1-1.1
										l-2.8,2.9c0.3,0.5,0.7,0.8,1.3,0.8C189.1,14.4,189.6,13.5,189.6,11.9z"/>
									<path d="M191.6,14.3h1.9V9.9L192,11l-0.3-0.4l2-2h0.5v5.7h1.9V15h-4.5V14.3z"/>
									<path d="M197.7,14.4c2.1-0.1,3.2-0.9,3.4-2.5h0c-0.5,0.5-1.1,0.7-1.8,0.7c-1.2,0-2-0.8-2-2c0-1.3,0.9-2.1,2.2-2.1
										c1.5,0,2.4,1,2.4,2.9c0,2.3-1.4,3.6-4.1,3.6L197.7,14.4z M201.1,11.1c-0.1-1.1-0.7-1.8-1.6-1.8c-0.8,0-1.4,0.5-1.4,1.4
										c0,0.8,0.5,1.3,1.4,1.3C200.1,12,200.6,11.7,201.1,11.1z"/>
								</g>
							</g>
						</g>
						<path pointer-events="none" class="st6" d="M0,0"/>
					</g>
				</g>
				<g>
					<g transform="translate(0.5,0.5)">
						<path pointer-events="none" class="st1" d="M0,0L0,0L0,0L0,0z"/>
						<g>
							<g pointer-events="none">
								<g class="st5">
									<path d="M-17,102.8c-0.8,0-1.5-0.3-2.1-0.7l0.4-0.6c0.5,0.4,1,0.6,1.7,0.6v-2l-0.4,0c-1-0.1-1.5-0.7-1.5-1.5
										c0-1,0.7-1.6,1.9-1.7l-0.1-1h0.8l-0.1,1c0.6,0,1.2,0.2,1.7,0.6l-0.4,0.6c-0.4-0.3-0.9-0.4-1.4-0.5v1.9l0.4,0
										c1,0.1,1.5,0.7,1.5,1.5c0,1-0.7,1.6-1.9,1.7l0.1,1H-17L-17,102.8z M-16.9,97.6c-0.7,0.1-1.1,0.4-1.1,0.9
										c0,0.5,0.3,0.8,1,0.8l0.2,0V97.6z M-15.2,101.1c0-0.5-0.3-0.8-1-0.8l-0.2,0v1.9C-15.6,102-15.2,101.7-15.2,101.1z"/>
									<path d="M-13.3,99.9c0-2.1,0.8-3.3,2.4-3.3s2.4,1.1,2.4,3.3s-0.8,3.3-2.4,3.3S-13.3,102-13.3,99.9z M-9.6,98.1
										c-0.3-0.5-0.7-0.8-1.3-0.8c-1.1,0-1.6,0.9-1.6,2.6c0,0.4,0,0.8,0.1,1.1L-9.6,98.1z M-9.3,99.9c0-0.4,0-0.8-0.1-1.1
										l-2.8,2.9c0.3,0.5,0.7,0.8,1.3,0.8C-9.8,102.4-9.3,101.5-9.3,99.9z"/>
								</g>
								<g class="st5">
									<path d="M-28.6,71.6c-0.8,0-1.5-0.3-2.1-0.7l0.4-0.6c0.5,0.4,1,0.6,1.7,0.6v-2l-0.4,0c-1-0.1-1.5-0.7-1.5-1.5
										c0-1,0.7-1.6,1.9-1.7l-0.1-1h0.8l-0.1,1c0.6,0,1.2,0.2,1.7,0.6l-0.4,0.6c-0.4-0.3-0.9-0.4-1.4-0.5v1.9l0.4,0
										c1,0.1,1.5,0.7,1.5,1.5c0,1-0.7,1.6-1.9,1.7l0.1,1h-0.8L-28.6,71.6z M-28.5,66.4c-0.7,0.1-1.1,0.4-1.1,0.9
										c0,0.5,0.3,0.8,1,0.8l0.2,0V66.4z M-26.8,69.8c0-0.5-0.3-0.8-1-0.8l-0.2,0v1.9C-27.2,70.8-26.8,70.4-26.8,69.8z"/>
									<path d="M-24.7,71.2c2.6,0,3.6-0.5,3.6-1.5c0-0.7-0.4-1-1.2-1c-0.6,0-1.1,0.1-1.5,0.4l-0.6-0.3l0.4-3.4h3.5v0.7h-2.9
										l-0.2,2.2c0.5-0.2,1-0.4,1.5-0.4c1.2,0,1.9,0.6,1.9,1.7c0,1.5-1.2,2.2-4.3,2.2L-24.7,71.2z"/>
									<path d="M-19.1,68.6c0-2.1,0.8-3.3,2.4-3.3s2.4,1.1,2.4,3.3s-0.8,3.3-2.4,3.3S-19.1,70.7-19.1,68.6z M-15.4,66.8
										c-0.3-0.5-0.7-0.8-1.3-0.8c-1.1,0-1.6,0.9-1.6,2.6c0,0.4,0,0.8,0.1,1.1L-15.4,66.8z M-15.1,68.6c0-0.4,0-0.8-0.1-1.1
										l-2.8,2.9c0.3,0.5,0.7,0.8,1.3,0.8C-15.6,71.2-15.1,70.3-15.1,68.6z"/>
									<path d="M-13.3,68.6c0-2.1,0.8-3.3,2.4-3.3s2.4,1.1,2.4,3.3s-0.8,3.3-2.4,3.3S-13.3,70.7-13.3,68.6z M-9.6,66.8
										c-0.3-0.5-0.7-0.8-1.3-0.8c-1.1,0-1.6,0.9-1.6,2.6c0,0.4,0,0.8,0.1,1.1L-9.6,66.8z M-9.3,68.6c0-0.4,0-0.8-0.1-1.1
										l-2.8,2.9c0.3,0.5,0.7,0.8,1.3,0.8C-9.8,71.2-9.3,70.3-9.3,68.6z"/>
								</g>
								<g class="st5">
									<path d="M-40.2,40.3c-0.8,0-1.5-0.3-2.1-0.7l0.4-0.6c0.5,0.4,1,0.6,1.7,0.6v-2l-0.4,0c-1-0.1-1.5-0.7-1.5-1.5
										c0-1,0.7-1.6,1.9-1.7l-0.1-1h0.8l-0.1,1c0.6,0,1.2,0.2,1.7,0.6l-0.4,0.6c-0.4-0.3-0.9-0.4-1.4-0.5V37l0.4,0
										c1,0.1,1.5,0.7,1.5,1.5c0,1-0.7,1.6-1.9,1.7l0.1,1h-0.8L-40.2,40.3z M-40.1,35.1c-0.7,0.1-1.1,0.4-1.1,0.9
										c0,0.5,0.3,0.8,1,0.8l0.2,0V35.1z M-38.4,38.6c0-0.5-0.3-0.8-1-0.8l-0.2,0v1.9C-38.8,39.5-38.4,39.2-38.4,38.6z"/>
									<path d="M-36.4,39.8h1.9v-4.4l-1.5,1.1l-0.3-0.4l2-2h0.5v5.7h1.9v0.7h-4.5V39.8z"/>
									<path d="M-29.4,41.9c0.7-0.2,1-0.6,1.1-1.3c0,0-0.1,0-0.1,0c-0.4,0-0.7-0.3-0.7-0.7s0.3-0.7,0.7-0.7c0.4,0,0.8,0.2,0.8,1
										c0,0.9-0.5,2-1.7,2.3L-29.4,41.9z"/>
									<path d="M-24.9,37.4c0-2.1,0.8-3.3,2.4-3.3s2.4,1.1,2.4,3.3s-0.8,3.3-2.4,3.3S-24.9,39.5-24.9,37.4z M-21.2,35.6
										c-0.3-0.5-0.7-0.8-1.3-0.8c-1.1,0-1.6,0.9-1.6,2.6c0,0.4,0,0.8,0.1,1.1L-21.2,35.6z M-20.9,37.4c0-0.4,0-0.8-0.1-1.1
										l-2.8,2.9c0.3,0.5,0.7,0.8,1.3,0.8C-21.4,39.9-20.9,39-20.9,37.4z"/>
									<path d="M-19.1,37.4c0-2.1,0.8-3.3,2.4-3.3s2.4,1.1,2.4,3.3s-0.8,3.3-2.4,3.3S-19.1,39.5-19.1,37.4z M-15.4,35.6
										c-0.3-0.5-0.7-0.8-1.3-0.8c-1.1,0-1.6,0.9-1.6,2.6c0,0.4,0,0.8,0.1,1.1L-15.4,35.6z M-15.1,37.4c0-0.4,0-0.8-0.1-1.1
										l-2.8,2.9c0.3,0.5,0.7,0.8,1.3,0.8C-15.6,39.9-15.1,39-15.1,37.4z"/>
									<path d="M-13.3,37.4c0-2.1,0.8-3.3,2.4-3.3s2.4,1.1,2.4,3.3s-0.8,3.3-2.4,3.3S-13.3,39.5-13.3,37.4z M-9.6,35.6
										c-0.3-0.5-0.7-0.8-1.3-0.8c-1.1,0-1.6,0.9-1.6,2.6c0,0.4,0,0.8,0.1,1.1L-9.6,35.6z M-9.3,37.4c0-0.4,0-0.8-0.1-1.1
										l-2.8,2.9c0.3,0.5,0.7,0.8,1.3,0.8C-9.8,39.9-9.3,39-9.3,37.4z"/>
								</g>
								<g class="st5">
									<path d="M-40.2,9.1c-0.8,0-1.5-0.3-2.1-0.7l0.4-0.6c0.5,0.4,1,0.6,1.7,0.6v-2l-0.4,0c-1-0.1-1.5-0.7-1.5-1.5
										c0-1,0.7-1.6,1.9-1.7l-0.1-1h0.8l-0.1,1c0.6,0,1.2,0.2,1.7,0.6l-0.4,0.6c-0.4-0.3-0.9-0.4-1.4-0.5v1.9l0.4,0
										c1,0.1,1.5,0.7,1.5,1.5c0,1-0.7,1.6-1.9,1.7l0.1,1h-0.8L-40.2,9.1z M-40.1,3.9c-0.7,0.1-1.1,0.4-1.1,0.9
										c0,0.5,0.3,0.8,1,0.8l0.2,0V3.9z M-38.4,7.3c0-0.5-0.3-0.8-1-0.8l-0.2,0v1.9C-38.8,8.3-38.4,7.9-38.4,7.3z"/>
									<path d="M-36.4,8.6h1.9V4.2l-1.5,1.1l-0.3-0.4l2-2h0.5v5.7h1.9v0.7h-4.5V8.6z"/>
									<path d="M-29.4,10.6c0.7-0.2,1-0.6,1.1-1.3c0,0-0.1,0-0.1,0c-0.4,0-0.7-0.3-0.7-0.7s0.3-0.7,0.7-0.7c0.4,0,0.8,0.2,0.8,1
										c0,0.9-0.5,2-1.7,2.3L-29.4,10.6z"/>
									<path d="M-24.7,8.7c2.6,0,3.6-0.5,3.6-1.5c0-0.7-0.4-1-1.2-1c-0.6,0-1.1,0.1-1.5,0.4l-0.6-0.3l0.4-3.4h3.5v0.7h-2.9
										l-0.2,2.2c0.5-0.2,1-0.4,1.5-0.4c1.2,0,1.9,0.6,1.9,1.7c0,1.5-1.2,2.2-4.3,2.2L-24.7,8.7z"/>
									<path d="M-19.1,6.1c0-2.1,0.8-3.3,2.4-3.3s2.4,1.1,2.4,3.3s-0.8,3.3-2.4,3.3S-19.1,8.2-19.1,6.1z M-15.4,4.3
										c-0.3-0.5-0.7-0.8-1.3-0.8c-1.1,0-1.6,0.9-1.6,2.6c0,0.4,0,0.8,0.1,1.1L-15.4,4.3z M-15.1,6.1c0-0.4,0-0.8-0.1-1.1L-18,7.9
										c0.3,0.5,0.7,0.8,1.3,0.8C-15.6,8.7-15.1,7.8-15.1,6.1z"/>
									<path d="M-13.3,6.1c0-2.1,0.8-3.3,2.4-3.3S-8.5,4-8.5,6.1s-0.8,3.3-2.4,3.3S-13.3,8.2-13.3,6.1z M-9.6,4.3
										c-0.3-0.5-0.7-0.8-1.3-0.8c-1.1,0-1.6,0.9-1.6,2.6c0,0.4,0,0.8,0.1,1.1L-9.6,4.3z M-9.3,6.1c0-0.4,0-0.8-0.1-1.1l-2.8,2.9
										c0.3,0.5,0.7,0.8,1.3,0.8C-9.8,8.7-9.3,7.8-9.3,6.1z"/>
								</g>
							</g>
						</g>
						<path pointer-events="none" class="st6" d="M0,0"/>
					</g>
				</g>
				<g>
					<g transform="translate(0,0)">
						<path class="st1" d="M0,0h200v100H0V0z"/>
						<g>
							<g>
								<path class="st7" d="M18.2,53l90.9-26.3l81.8-19.9"/>
							</g>
						</g>
						<path class="st8" d="M0,0"/>
					</g>
					<g transform="translate(0,0)">
						<path class="st1" d="M0,0h200v100H0V0z"/>
						<g>
							<g>
								<path class="st9" d="M18.2,53.7L109.1,30l81.8-22.9"/>
							</g>
						</g>
						<path class="st10" d="M0,0"/>
					</g>
				</g>
				<g>
					<g transform="translate(-42.7999267578125,-14)">
						<path pointer-events="none" class="st1" d="M0,0L0,0L0,0L0,0z"/>
						<g>
							<g pointer-events="none">
								<g class="st5">
									<path d="M0.6-8.5h1.2l1.1,3.7L4-8.5h1.2V-2H4.3v-5.2L3.2-3.3H2.6L1.4-7.2V-2H0.6V-8.5z"/>
									<path d="M6.3-4.4c0-1.5,1-2.5,2.4-2.5c1.4,0,2.3,0.9,2.3,2.3c0,0.2,0,0.3,0,0.5H7.3C7.4-3.2,8-2.7,9-2.7
										c0.5,0,1-0.1,1.5-0.5l0.4,0.7C10.3-2.1,9.7-1.9,9-1.9C7.3-1.9,6.3-2.8,6.3-4.4z M10.2-4.8C10.1-5.6,9.6-6,8.8-6
										C8-6,7.4-5.6,7.3-4.8H10.2z"/>
									<path d="M12.1-4.4c0-1.5,0.8-2.5,2.1-2.5c0.5,0,1,0.2,1.5,0.5v-2.7h0.9V-2h-0.7l-0.1-0.5c-0.5,0.4-1.1,0.6-1.6,0.6
										C12.9-1.9,12.1-2.8,12.1-4.4z M15.7-3.1v-2.4C15.3-5.8,14.8-6,14.4-6c-0.8,0-1.3,0.6-1.3,1.6c0,1,0.5,1.6,1.3,1.6
										C14.8-2.7,15.3-2.9,15.7-3.1z"/>
									<path d="M19.8-5.9h-1.9v-0.8h2.8v3.9h1.9V-2h-2.8V-5.9z M19.5-8.5c0-0.4,0.3-0.7,0.7-0.7s0.7,0.3,0.7,0.7
										c0,0.4-0.3,0.7-0.7,0.7S19.5-8.1,19.5-8.5z"/>
									<path d="M23.8-3.4c0-0.9,0.6-1.4,1.8-1.4h1.7v-0.2C27.3-5.7,26.9-6,26-6c-0.6,0-1.2,0.2-1.7,0.4l-0.3-0.7
										c0.6-0.3,1.3-0.5,2-0.5c1.4,0,2.1,0.6,2.1,1.8v3h-0.7l-0.1-0.5c-0.5,0.4-1.1,0.6-1.8,0.6C24.5-1.9,23.8-2.4,23.8-3.4z
										 M27.3-3.1V-4h-1.6c-0.6,0-0.9,0.2-0.9,0.6c0,0.5,0.3,0.7,1,0.7C26.3-2.7,26.8-2.8,27.3-3.1z"/>
									<path d="M29.9-6.7h0.7l0.1,0.5c0.5-0.4,1.1-0.6,1.7-0.6C33.4-6.8,34-6.2,34-5v3h-0.9v-2.9c0-0.8-0.3-1.1-1-1.1
										c-0.5,0-0.9,0.2-1.3,0.4V-2h-0.9V-6.7z"/>
									<path d="M41.8-6.7h0.7L42.6-6c0.5-0.6,1.2-0.9,1.9-0.9c0.5,0,0.8,0.1,1.1,0.3l-0.3,0.8C45-5.9,44.8-6,44.4-6
										c-0.7,0-1.3,0.3-1.8,1v3h-0.9V-6.7z"/>
									<path d="M46.9-4.4c0-1.5,1-2.5,2.4-2.5c1.4,0,2.3,0.9,2.3,2.3c0,0.2,0,0.3,0,0.5h-3.8c0.1,0.9,0.7,1.4,1.7,1.4
										c0.5,0,1-0.1,1.5-0.5l0.4,0.7c-0.6,0.4-1.2,0.6-1.9,0.6C47.9-1.9,46.9-2.8,46.9-4.4z M50.8-4.8C50.7-5.6,50.2-6,49.4-6
										c-0.8,0-1.3,0.5-1.5,1.2H50.8z"/>
									<path d="M53.1-6.7h0.7l0.1,0.5c0.5-0.4,1.1-0.6,1.7-0.6c1.1,0,1.7,0.6,1.7,1.8v3h-0.9v-2.9c0-0.8-0.3-1.1-1-1.1
										c-0.5,0-0.9,0.2-1.3,0.4V-2h-0.9V-6.7z"/>
									<path d="M60-3.7v-2.2h-1.5v-0.8H60v-1.5l0.9-0.4v1.9h1.9v0.8h-1.9v2.1c0,0.8,0.3,1.1,1,1.1c0.4,0,0.8-0.1,1.2-0.3l0.2,0.8
										c-0.5,0.2-1,0.4-1.5,0.4C60.6-1.9,60-2.5,60-3.7z"/>
								</g>
							</g>
						</g>
						<path pointer-events="none" class="st6" d="M0,0"/>
					</g>
				</g>
			</g>
			<path class="st6" d="M0,0"/>
		</g>
	</g>
</g>
</svg>
