<?xml version="1.0" encoding="utf-8"?>
<!-- Generator: Adobe Illustrator 26.2.1, SVG Export Plug-In . SVG Version: 6.00 Build 0)  -->
<svg version="1.1" id="Layer_1" xmlns="http://www.w3.org/2000/svg" xmlns:xlink="http://www.w3.org/1999/xlink" x="0px" y="0px"
	 viewBox="0 0 244 157" style="enable-background:new 0 0 244 157;" xml:space="preserve">
<style type="text/css">
	.st0{fill:#FFFFFF;}
	.st1{fill:none;}
	.st2{fill:none;stroke:#DDDDDD;stroke-miterlimit:10;}
	.st3{display:none;fill:none;stroke:#DDDDDD;stroke-miterlimit:10;}
	.st4{fill:none;stroke:#888888;stroke-miterlimit:10;}
	.st5{enable-background:new    ;}
	.st6{display:none;}
	.st7{fill:none;stroke:#FF8500;stroke-width:2;stroke-miterlimit:10;}
	.st8{display:none;fill:none;stroke:#FF8500;stroke-width:2;stroke-miterlimit:10;}
	.st9{fill:none;stroke:#B2B2B2;stroke-width:2;stroke-miterlimit:10;}
	.st10{display:none;fill:none;stroke:#B2B2B2;stroke-width:2;stroke-miterlimit:10;}
</style>
<rect class="st0" width="244" height="157"/>
<g transform="translate(34,34)">
	<g>
		<g transform="translate(0,0)">
			<path class="st1" d="M0,0h200v100H0V0z"/>
			<g>
				<g>
					<g transform="translate(0.5,0.5)">
						<path pointer-events="none" class="st1" d="M0,0L0,0L0,0L0,0z"/>
						<g>
							<g pointer-events="none">
								<line class="st2" x1="0" y1="100" x2="200" y2="100"/>
								<line class="st2" x1="0" y1="58" x2="200" y2="58"/>
								<line class="st2" x1="0" y1="17" x2="200" y2="17"/>
							</g>
						</g>
						<path pointer-events="none" class="st3" d="M0,0"/>
					</g>
				</g>
				<g>
					<g transform="translate(0.5,100.5)">
						<path pointer-events="none" class="st1" d="M0,0L0,0L0,0L0,0z"/>
						<g>
							<g pointer-events="none">
								<line class="st4" x1="18" y1="0" x2="18" y2="5"/>
								<line class="st4" x1="109" y1="0" x2="109" y2="5"/>
								<line class="st4" x1="191" y1="0" x2="191" y2="5"/>
							</g>
							<g pointer-events="none">
								<g class="st5">
									<path d="M5.2,15.2c0-1.9,0.6-2.8,2.2-3.3l0.9-0.3c0.7-0.2,1.1-0.5,1.1-1.2c0-0.9-0.6-1.3-1.7-1.3c-0.8,0-1.5,0.3-2.1,0.8
										L5.2,9.2C6,8.6,6.8,8.3,7.7,8.3c1.6,0,2.6,0.8,2.6,2.2c0,1.1-0.5,1.7-1.8,2l-0.9,0.3c-1.1,0.3-1.5,0.9-1.5,2.4h4.3V16H5.2
										V15.2z"/>
									<path d="M11.9,12.2c0-2.5,1-3.9,2.8-3.9s2.8,1.4,2.8,3.9c0,2.5-1,3.9-2.8,3.9S11.9,14.8,11.9,12.2z M16.2,10.1
										c-0.3-0.6-0.8-0.9-1.5-0.9c-1.3,0-1.9,1.1-1.9,3.1c0,0.5,0,0.9,0.1,1.3L16.2,10.1z M16.6,12.2c0-0.5,0-0.9-0.1-1.3
										l-3.4,3.5c0.3,0.6,0.8,0.9,1.5,0.9C16,15.3,16.6,14.2,16.6,12.2z"/>
									<path d="M18.8,12.2c0-2.5,1-3.9,2.8-3.9s2.8,1.4,2.8,3.9c0,2.5-1,3.9-2.8,3.9S18.8,14.8,18.8,12.2z M23.2,10.1
										c-0.3-0.6-0.8-0.9-1.5-0.9c-1.3,0-1.9,1.1-1.9,3.1c0,0.5,0,0.9,0.1,1.3L23.2,10.1z M23.6,12.2c0-0.5,0-0.9-0.1-1.3
										l-3.4,3.5c0.3,0.6,0.8,0.9,1.5,0.9C22.9,15.3,23.6,14.2,23.6,12.2z"/>
									<path d="M25.8,12.2c0-2.5,1-3.9,2.8-3.9c1.8,0,2.8,1.4,2.8,3.9c0,2.5-1,3.9-2.8,3.9C26.8,16.1,25.8,14.8,25.8,12.2z
										 M30.2,10.1c-0.3-0.6-0.8-0.9-1.5-0.9c-1.3,0-1.9,1.1-1.9,3.1c0,0.5,0,0.9,0.1,1.3L30.2,10.1z M30.6,12.2
										c0-0.5,0-0.9-0.1-1.3l-3.4,3.5c0.3,0.6,0.8,0.9,1.5,0.9C29.9,15.3,30.6,14.2,30.6,12.2z"/>
								</g>
								<g class="st5">
									<path d="M96.1,15.2c0-1.9,0.6-2.8,2.2-3.3l0.9-0.3c0.7-0.2,1.1-0.5,1.1-1.2c0-0.9-0.6-1.3-1.7-1.3c-0.8,0-1.5,0.3-2.1,0.8
										l-0.4-0.7c0.8-0.7,1.6-0.9,2.5-0.9c1.6,0,2.6,0.8,2.6,2.2c0,1.1-0.5,1.7-1.8,2l-0.9,0.3c-1.1,0.3-1.5,0.9-1.5,2.4h4.3V16
										h-5.1V15.2z"/>
									<path d="M102.8,12.2c0-2.5,1-3.9,2.8-3.9c1.8,0,2.8,1.4,2.8,3.9c0,2.5-1,3.9-2.8,3.9C103.8,16.1,102.8,14.8,102.8,12.2z
										 M107.2,10.1c-0.3-0.6-0.8-0.9-1.5-0.9c-1.3,0-1.9,1.1-1.9,3.1c0,0.5,0,0.9,0.1,1.3L107.2,10.1z M107.6,12.2
										c0-0.5,0-0.9-0.1-1.3l-3.4,3.5c0.3,0.6,0.8,0.9,1.5,0.9C106.9,15.3,107.6,14.2,107.6,12.2z"/>
									<path d="M109.9,15.2h2.3V9.9l-1.8,1.4l-0.4-0.5l2.5-2.4h0.6v6.8h2.3V16h-5.4V15.2z"/>
									<path d="M116.7,12.2c0-2.5,1-3.9,2.8-3.9c1.8,0,2.8,1.4,2.8,3.9c0,2.5-1,3.9-2.8,3.9C117.7,16.1,116.7,14.8,116.7,12.2z
										 M121.1,10.1c-0.3-0.6-0.8-0.9-1.5-0.9c-1.3,0-1.9,1.1-1.9,3.1c0,0.5,0,0.9,0.1,1.3L121.1,10.1z M121.5,12.2
										c0-0.5,0-0.9-0.1-1.3l-3.4,3.5c0.3,0.6,0.8,0.9,1.5,0.9C120.8,15.3,121.5,14.2,121.5,12.2z"/>
								</g>
								<g class="st5">
									<path d="M177.9,15.2c0-1.9,0.6-2.8,2.2-3.3l0.9-0.3c0.7-0.2,1.1-0.5,1.1-1.2c0-0.9-0.6-1.3-1.7-1.3c-0.8,0-1.5,0.3-2.1,0.8
										l-0.4-0.7c0.8-0.7,1.6-0.9,2.5-0.9c1.6,0,2.6,0.8,2.6,2.2c0,1.1-0.5,1.7-1.8,2l-0.9,0.3c-1.1,0.3-1.5,0.9-1.5,2.4h4.3V16
										h-5.1V15.2z"/>
									<path d="M184.6,12.2c0-2.5,1-3.9,2.8-3.9c1.8,0,2.8,1.4,2.8,3.9c0,2.5-1,3.9-2.8,3.9C185.6,16.1,184.6,14.8,184.6,12.2z
										 M189,10.1c-0.3-0.6-0.8-0.9-1.5-0.9c-1.3,0-1.9,1.1-1.9,3.1c0,0.5,0,0.9,0.1,1.3L189,10.1z M189.4,12.2
										c0-0.5,0-0.9-0.1-1.3l-3.4,3.5c0.3,0.6,0.8,0.9,1.5,0.9C188.7,15.3,189.4,14.2,189.4,12.2z"/>
									<path d="M191.7,15.2h2.3V9.9l-1.8,1.4l-0.4-0.5l2.5-2.4h0.6v6.8h2.3V16h-5.4V15.2z"/>
									<path d="M199.1,15.3c2.6-0.1,3.9-1.1,4.1-3h0c-0.6,0.6-1.3,0.9-2.1,0.9c-1.5,0-2.4-1-2.4-2.4c0-1.5,1.1-2.5,2.6-2.5
										c1.8,0,2.8,1.3,2.8,3.5c0,2.8-1.7,4.3-4.9,4.4L199.1,15.3z M203.2,11.3c-0.1-1.4-0.8-2.2-2-2.2c-1,0-1.7,0.6-1.7,1.7
										c0,1,0.6,1.6,1.7,1.6C201.9,12.4,202.6,12,203.2,11.3z"/>
								</g>
							</g>
						</g>
						<path pointer-events="none" class="st6" d="M0,0"/>
					</g>
				</g>
				<g>
					<g transform="translate(0.5,0.5)">
						<path pointer-events="none" class="st1" d="M0,0L0,0L0,0L0,0z"/>
						<g>
							<g pointer-events="none">
								<g class="st5">
									<path d="M-21.3,100.2c0-2.5,1-3.9,2.8-3.9c1.8,0,2.8,1.4,2.8,3.9c0,2.5-1,3.9-2.8,3.9C-20.3,104.1-21.3,102.8-21.3,100.2z
										 M-16.9,98.1c-0.3-0.6-0.8-0.9-1.5-0.9c-1.3,0-1.9,1.1-1.9,3.1c0,0.5,0,0.9,0.1,1.3L-16.9,98.1z M-16.5,100.2
										c0-0.5,0-0.9-0.1-1.3l-3.4,3.5c0.3,0.6,0.8,0.9,1.5,0.9C-17.2,103.3-16.5,102.2-16.5,100.2z"/>
									<path d="M-14.8,103.5l2.4-2.7l0.4,0.4l-2.2,2.9L-14.8,103.5z M-14.7,98.1c0-1.1,0.6-1.8,1.6-1.8c1,0,1.6,0.7,1.6,1.8
										c0,1.1-0.6,1.8-1.6,1.8C-14.1,99.9-14.7,99.2-14.7,98.1z M-12.3,98.1c0-0.7-0.3-1.1-0.8-1.1c-0.5,0-0.8,0.4-0.8,1.1
										c0,0.7,0.3,1.1,0.8,1.1C-12.6,99.2-12.3,98.8-12.3,98.1z M-11.5,102.3c0-1.1,0.6-1.8,1.6-1.8c1,0,1.6,0.7,1.6,1.8
										c0,1.1-0.6,1.8-1.6,1.8C-10.9,104.1-11.5,103.4-11.5,102.3z M-11,99.3l2.2-2.9l0.7,0.6l-2.4,2.7L-11,99.3z M-9,102.3
										c0-0.7-0.3-1.1-0.8-1.1c-0.5,0-0.8,0.4-0.8,1.1s0.3,1.1,0.8,1.1C-9.3,103.5-9,103.1-9,102.3z"/>
								</g>
								<g class="st5">
									<path d="M-28.1,61.5h2.3v-5.3l-1.8,1.4l-0.4-0.5l2.5-2.4h0.6v6.8h2.3v0.8h-5.4V61.5z"/>
									<path d="M-21.3,58.6c0-2.5,1-3.9,2.8-3.9s2.8,1.4,2.8,3.9c0,2.5-1,3.9-2.8,3.9S-21.3,61.1-21.3,58.6z M-16.9,56.4
										c-0.3-0.6-0.8-0.9-1.5-0.9c-1.3,0-1.9,1.1-1.9,3.1c0,0.5,0,0.9,0.1,1.3L-16.9,56.4z M-16.5,58.6c0-0.5,0-0.9-0.1-1.3
										l-3.4,3.5c0.3,0.6,0.8,0.9,1.5,0.9C-17.2,61.6-16.5,60.6-16.5,58.6z"/>
									<path d="M-14.8,61.8l2.4-2.7l0.4,0.4l-2.2,2.9L-14.8,61.8z M-14.7,56.4c0-1.1,0.6-1.8,1.6-1.8s1.6,0.7,1.6,1.8
										c0,1.1-0.6,1.8-1.6,1.8S-14.7,57.5-14.7,56.4z M-12.3,56.4c0-0.7-0.3-1.1-0.8-1.1s-0.8,0.4-0.8,1.1c0,0.7,0.3,1.1,0.8,1.1
										S-12.3,57.2-12.3,56.4z M-11.5,60.7c0-1.1,0.6-1.8,1.6-1.8s1.6,0.7,1.6,1.8c0,1.1-0.6,1.8-1.6,1.8S-11.5,61.8-11.5,60.7z
										 M-11,57.6l2.2-2.9l0.7,0.6l-2.4,2.7L-11,57.6z M-9,60.7c0-0.7-0.3-1.1-0.8-1.1s-0.8,0.4-0.8,1.1s0.3,1.1,0.8,1.1
										S-9,61.4-9,60.7z"/>
								</g>
								<g class="st5">
									<path d="M-28,19.9c0-1.9,0.6-2.8,2.2-3.3l0.9-0.3c0.7-0.2,1.1-0.5,1.1-1.2c0-0.9-0.6-1.3-1.7-1.3c-0.8,0-1.5,0.3-2.1,0.8
										l-0.4-0.7c0.8-0.7,1.6-0.9,2.5-0.9c1.6,0,2.6,0.8,2.6,2.2c0,1.1-0.5,1.7-1.8,2l-0.9,0.3c-1.1,0.3-1.5,0.9-1.5,2.4h4.3v0.8
										H-28V19.9z"/>
									<path d="M-21.3,16.9c0-2.5,1-3.9,2.8-3.9s2.8,1.4,2.8,3.9c0,2.5-1,3.9-2.8,3.9S-21.3,19.4-21.3,16.9z M-16.9,14.8
										c-0.3-0.6-0.8-0.9-1.5-0.9c-1.3,0-1.9,1.1-1.9,3.1c0,0.5,0,0.9,0.1,1.3L-16.9,14.8z M-16.5,16.9c0-0.5,0-0.9-0.1-1.3
										L-20,19c0.3,0.6,0.8,0.9,1.5,0.9C-17.2,20-16.5,18.9-16.5,16.9z"/>
									<path d="M-14.8,20.1l2.4-2.7l0.4,0.4l-2.2,2.9L-14.8,20.1z M-14.7,14.8c0-1.1,0.6-1.8,1.6-1.8s1.6,0.7,1.6,1.8
										c0,1.1-0.6,1.8-1.6,1.8S-14.7,15.9-14.7,14.8z M-12.3,14.8c0-0.7-0.3-1.1-0.8-1.1s-0.8,0.4-0.8,1.1c0,0.7,0.3,1.1,0.8,1.1
										S-12.3,15.5-12.3,14.8z M-11.5,19c0-1.1,0.6-1.8,1.6-1.8s1.6,0.7,1.6,1.8c0,1.1-0.6,1.8-1.6,1.8S-11.5,20.1-11.5,19z
										 M-11,15.9l2.2-2.9l0.7,0.6l-2.4,2.7L-11,15.9z M-9,19c0-0.7-0.3-1.1-0.8-1.1s-0.8,0.4-0.8,1.1s0.3,1.1,0.8,1.1
										S-9,19.7-9,19z"/>
								</g>
							</g>
						</g>
						<path pointer-events="none" class="st6" d="M0,0"/>
					</g>
				</g>
				<g>
					<g transform="translate(0,0)">
						<path class="st1" d="M0,0h200v100H0V0z"/>
						<g>
							<g>
								<path class="st7" d="M18.2,6.9l90.9-0.2l81.8-6.5"/>
							</g>
						</g>
						<path class="st8" d="M0,0"/>
					</g>
					<g transform="translate(0,0)">
						<path class="st1" d="M0,0h200v100H0V0z"/>
						<g>
							<g>
								<path class="st9" d="M18.2,6.3l90.9-1.4l81.8,1.5"/>
							</g>
						</g>
						<path class="st10" d="M0,0"/>
					</g>
				</g>
				<g>
					<g transform="translate(-28.879974365234375,-17.850686010032916)">
						<path pointer-events="none" class="st1" d="M0,0L0,0L0,0L0,0z"/>
						<g>
							<g pointer-events="none">
								<g class="st5">
									<path d="M1-8.8h2.9c1.6,0,2.5,0.8,2.5,2.3c0,1.5-0.8,2.3-2.5,2.3H2.1V-1H1V-8.8z M3.8-5.3c1,0,1.5-0.4,1.5-1.2
										c0-0.9-0.4-1.2-1.5-1.2H2.1v2.5H3.8z"/>
									<path d="M7.6-3.8c0-1.8,1.2-3,2.9-3c1.7,0,2.7,1.1,2.7,2.8c0,0.2,0,0.4,0,0.6H8.7c0.1,1.1,0.9,1.6,2.1,1.6
										c0.7,0,1.2-0.2,1.8-0.6l0.4,0.8c-0.7,0.5-1.5,0.7-2.3,0.7C8.8-0.9,7.6-2,7.6-3.8z M12.2-4.3c-0.1-0.9-0.7-1.5-1.7-1.5
										c-1,0-1.6,0.6-1.8,1.5H12.2z"/>
									<path d="M14.5-3.8c0-1.8,1.2-3,2.9-3c1.7,0,2.9,1.2,2.9,3c0,1.8-1.2,3-2.9,3C15.7-0.9,14.5-2.1,14.5-3.8z M19.2-3.8
										c0-1.2-0.7-2-1.8-2s-1.8,0.7-1.8,2c0,1.2,0.7,2,1.8,2S19.2-2.6,19.2-3.8z"/>
									<path d="M21.8-6.7h0.8l0.1,0.6c0.6-0.5,1.3-0.7,2-0.7c1.5,0,2.5,1.2,2.5,3c0,1.8-1,3-2.5,3c-0.6,0-1.2-0.2-1.8-0.6v3h-1.1
										V-6.7z M26.1-3.8c0-1.3-0.6-2-1.6-2c-0.5,0-1.1,0.2-1.6,0.5v2.9C23.4-2,24-1.9,24.5-1.9C25.5-1.9,26.1-2.6,26.1-3.8z"/>
									<path d="M30.5-3v-5.5h-2.3v-1h3.4v6.3c0,0.9,0.3,1.3,1.2,1.3c0.5,0,1-0.1,1.4-0.4l0.3,0.9c-0.6,0.3-1.2,0.4-1.8,0.4
										C31.2-0.9,30.5-1.6,30.5-3z"/>
									<path d="M35.5-3.8c0-1.8,1.2-3,2.9-3c1.7,0,2.7,1.1,2.7,2.8c0,0.2,0,0.4,0,0.6h-4.5c0.1,1.1,0.9,1.6,2.1,1.6
										c0.7,0,1.2-0.2,1.8-0.6l0.4,0.8c-0.7,0.5-1.5,0.7-2.3,0.7C36.6-0.9,35.5-2,35.5-3.8z M40-4.3c-0.1-0.9-0.7-1.5-1.7-1.5
										c-1,0-1.6,0.6-1.8,1.5H40z"/>
									<path d="M50.6-1.6L50.5-1h-0.8v-8.5h1.1v3.3c0.6-0.4,1.2-0.6,1.8-0.6c1.5,0,2.5,1.2,2.5,3c0,1.8-1,3-2.5,3
										C51.9-0.9,51.2-1.1,50.6-1.6z M53.9-3.8c0-1.3-0.6-2-1.6-2c-0.5,0-1.1,0.2-1.6,0.5v2.9c0.5,0.3,1.1,0.5,1.6,0.5
										C53.3-1.9,53.9-2.6,53.9-3.8z"/>
									<path d="M56.3-3.8c0-1.8,1.2-3,2.9-3C60.9-6.8,62-5.7,62-4c0,0.2,0,0.4,0,0.6h-4.5c0.1,1.1,0.9,1.6,2.1,1.6
										c0.7,0,1.2-0.2,1.8-0.6l0.4,0.8c-0.7,0.5-1.5,0.7-2.3,0.7C57.5-0.9,56.3-2,56.3-3.8z M60.9-4.3c-0.1-0.9-0.7-1.5-1.7-1.5
										c-1,0-1.6,0.6-1.8,1.5H60.9z"/>
									<path d="M65-3v-2.7h-1.8v-1H65v-1.8l1.1-0.5v2.3h2.3v1h-2.3v2.5c0,0.9,0.3,1.3,1.2,1.3c0.5,0,0.9-0.1,1.4-0.4L69-1.3
										c-0.6,0.3-1.2,0.4-1.8,0.4C65.7-0.9,65-1.6,65-3z"/>
									<path d="M69.7-6.7h1l1,4.3L72.7-6h0.9l1,3.7l1-4.3h0.9L75.1-1H74l-0.9-3.7L72.1-1H71L69.7-6.7z"/>
									<path d="M77.2-3.8c0-1.8,1.2-3,2.9-3c1.7,0,2.7,1.1,2.7,2.8c0,0.2,0,0.4,0,0.6h-4.5c0.1,1.1,0.9,1.6,2.1,1.6
										c0.7,0,1.2-0.2,1.8-0.6l0.4,0.8c-0.7,0.5-1.5,0.7-2.3,0.7C78.4-0.9,77.2-2,77.2-3.8z M81.8-4.3c-0.1-0.9-0.7-1.5-1.7-1.5
										c-1,0-1.6,0.6-1.8,1.5H81.8z"/>
									<path d="M84.2-3.8c0-1.8,1.2-3,2.9-3c1.7,0,2.7,1.1,2.7,2.8c0,0.2,0,0.4,0,0.6h-4.5c0.1,1.1,0.9,1.6,2.1,1.6
										c0.7,0,1.2-0.2,1.8-0.6l0.4,0.8c-0.7,0.5-1.5,0.7-2.3,0.7C85.4-0.9,84.2-2,84.2-3.8z M88.8-4.3c-0.1-0.9-0.7-1.5-1.7-1.5
										c-1,0-1.6,0.6-1.8,1.5H88.8z"/>
									<path d="M91.5-6.7h0.8l0.1,0.6c0.6-0.5,1.3-0.7,2-0.7c1.3,0,2,0.7,2,2.1V-1h-1.1v-3.5c0-0.9-0.3-1.3-1.2-1.3
										c-0.6,0-1.1,0.2-1.6,0.5V-1h-1.1V-6.7z"/>
									<path d="M105.2-1.9c0-1.9,0.6-2.8,2.2-3.2l0.9-0.3c0.6-0.2,1-0.5,1-1.1c0-0.8-0.6-1.2-1.5-1.2c-0.8,0-1.4,0.3-2,0.8
										l-0.6-0.9c0.8-0.6,1.6-0.9,2.6-0.9c1.7,0,2.7,0.8,2.7,2.3c0,1.1-0.5,1.8-1.8,2.1l-0.9,0.3c-1,0.3-1.4,0.7-1.4,2.1h4.1v1
										h-5.3V-1.9z"/>
									<path d="M111.9-4.8c0-2.5,1-3.9,2.9-3.9s2.9,1.4,2.9,3.9c0,2.5-1,3.9-2.9,3.9S111.9-2.2,111.9-4.8z M116.2-6.8
										c-0.3-0.6-0.8-0.8-1.4-0.8c-1.2,0-1.8,1-1.8,2.9c0,0.4,0,0.8,0.1,1.1L116.2-6.8z M116.6-4.8c0-0.4,0-0.8-0.1-1.1l-3.1,3.2
										c0.3,0.6,0.8,0.8,1.4,0.8C116-1.9,116.6-2.9,116.6-4.8z"/>
									<path d="M126-2.7c0-1.1,0.7-1.7,2.1-1.7h2v-0.2c0-0.9-0.4-1.3-1.5-1.3c-0.7,0-1.4,0.2-2,0.5l-0.3-0.9
										c0.7-0.4,1.5-0.6,2.4-0.6c1.7,0,2.5,0.7,2.5,2.2V-1h-0.8l-0.1-0.6c-0.6,0.5-1.3,0.7-2.1,0.7C126.8-0.9,126-1.5,126-2.7z
										 M130.2-2.4v-1.1h-2c-0.7,0-1.1,0.3-1.1,0.8c0,0.6,0.4,0.9,1.3,0.9C129.1-1.8,129.6-2,130.2-2.4z"/>
									<path d="M133.3-6.7h0.8l0.1,0.6c0.6-0.5,1.3-0.7,2-0.7c1.3,0,2,0.7,2,2.1V-1h-1.1v-3.5c0-0.9-0.3-1.3-1.2-1.3
										c-0.6,0-1.1,0.2-1.6,0.5V-1h-1.1V-6.7z"/>
									<path d="M139.9-3.8c0-1.8,1-3,2.5-3c0.6,0,1.2,0.2,1.8,0.6v-3.3h1.1V-1h-0.8l-0.1-0.6c-0.6,0.5-1.3,0.7-2,0.7
										C140.8-0.9,139.9-2,139.9-3.8z M144.1-2.4v-2.9c-0.5-0.3-1.1-0.5-1.6-0.5c-1,0-1.6,0.7-1.6,2c0,1.3,0.6,2,1.6,2
										C143.1-1.9,143.6-2,144.1-2.4z"/>
									<path d="M153.9-1.9c3.1,0,4.2-0.4,4.2-1.5c0-0.8-0.6-0.9-1.6-0.9h-1.4v-1h1c1.1,0,1.8-0.4,1.8-1.2c0-0.7-0.5-1.1-1.5-1.1
										c-0.7,0-1.4,0.2-2,0.7l-0.5-0.9c0.8-0.6,1.6-0.8,2.6-0.8c1.6,0,2.5,0.7,2.5,2c0,0.8-0.3,1.3-1,1.6v0
										c0.8,0.2,1.3,0.7,1.3,1.7c0,1.8-1.5,2.5-5.3,2.5L153.9-1.9z"/>
									<path d="M164.3-2.7h-3.8v-0.8l3-5h1.2l-2.9,4.8h2.5v-2.4l1.1-0.6v3h1.3v1h-1.3V-1h-1.1V-2.7z"/>
								</g>
							</g>
						</g>
						<path pointer-events="none" class="st6" d="M0,0"/>
					</g>
				</g>
			</g>
			<path class="st6" d="M0,0"/>
		</g>
	</g>
</g>
</svg>
